<?xml version="1.0" encoding="utf-8"?>
<!-- Generator: Adobe Illustrator 18.0.0, SVG Export Plug-In . SVG Version: 6.00 Build 0)  -->
<!DOCTYPE svg PUBLIC "-//W3C//DTD SVG 1.1//EN" "http://www.w3.org/Graphics/SVG/1.1/DTD/svg11.dtd">
<svg version="1.1" id="Layer_1" xmlns="http://www.w3.org/2000/svg" xmlns:xlink="http://www.w3.org/1999/xlink" x="0px" y="0px"
	 width="24px" height="24px" viewBox="0 0 24 24" enable-background="new 0 0 24 24" xml:space="preserve">
<path fill="#010101" d="M20,2H4C2.9,2,2,2.9,2,4v16c0,1.1,0.9,2,2,2h16c1.1,0,2-0.9,2-2V4C22,2.9,21.1,2,20,2z M17,16.5h-6.8
	C10,16.9,9.5,17.2,9,17.2c-0.5,0-0.9-0.3-1.1-0.7H7v-1h0.9c0.2-0.4,0.6-0.7,1.1-0.7c0.5,0,0.9,0.3,1.1,0.7H17V16.5z M17,12.5h-0.9
	c-0.2,0.4-0.6,0.7-1.1,0.7c-0.5,0-0.9-0.3-1.1-0.7H7v-1h6.8c0.2-0.4,0.6-0.7,1.1-0.7c0.5,0,0.9,0.3,1.1,0.7H17V12.5z M17,8.5h-6.9
	C9.9,8.9,9.5,9.2,9,9.2S8.1,8.9,7.9,8.5H7v-1h0.9C8.1,7,8.5,6.7,9,6.7c0.5,0,1,0.3,1.2,0.8H17V8.5z"/>
</svg>
