<?xml version="1.0" encoding="utf-8"?>
<!-- Generator: Adobe Illustrator 18.0.0, SVG Export Plug-In . SVG Version: 6.00 Build 0)  -->
<!DOCTYPE svg PUBLIC "-//W3C//DTD SVG 1.1//EN" "http://www.w3.org/Graphics/SVG/1.1/DTD/svg11.dtd">
<svg version="1.1" id="Layer_1" xmlns="http://www.w3.org/2000/svg" xmlns:xlink="http://www.w3.org/1999/xlink" x="0px" y="0px"
	 viewBox="0 0 24 24" enable-background="new 0 0 24 24" xml:space="preserve">
<path d="M20,20V10c0-1.1-0.9-2-2-2H6c-1.1,0-2,0.9-2,2v10c0,1.1,0.9,2,2,2h12C19.1,22,20,21.1,20,20z M14,15c0,1.1-0.9,2-2,2
	c-1.1,0-2-0.9-2-2c0-1.1,0.9-2,2-2C13.1,13,14,13.9,14,15z"/>
<path d="M18,12h-2V7c0-2.2-1.8-4-4-4C9.8,3,8,4.8,8,7v5H6V7c0-3.3,2.7-6,6-6s6,2.7,6,6V12z"/>
</svg>
