<?xml version="1.0" encoding="utf-8"?>
<!-- Generator: Adobe Illustrator 18.0.0, SVG Export Plug-In . SVG Version: 6.00 Build 0)  -->
<!DOCTYPE svg PUBLIC "-//W3C//DTD SVG 1.1//EN" "http://www.w3.org/Graphics/SVG/1.1/DTD/svg11.dtd">
<svg version="1.1" id="Layer_1" xmlns="http://www.w3.org/2000/svg" xmlns:xlink="http://www.w3.org/1999/xlink" x="0px" y="0px"
	 viewBox="0 0 24 24" enable-background="new 0 0 24 24" xml:space="preserve">
<g>
	<g>
		<path d="M12,4.3l8,4.8V20H4V9.1L12,4.3 M12,2L3,7.4c-0.6,0.4-1,1-1,1.7V20c0,1.1,0.9,2,2,2h16c1.1,0,2-0.9,2-2V9.1
			c0-0.7-0.4-1.4-1-1.7L12,2L12,2z"/>
	</g>
	<g>
		<path d="M12,15L4,9L2,9.1V20c0,1.1,0.9,2,2,2h16c1.1,0,2-0.9,2-2V9.1L20,9L12,15z"/>
	</g>
</g>
</svg>
