<?xml version="1.0" encoding="utf-8"?>
<!-- Generator: Adobe Illustrator 18.0.0, SVG Export Plug-In . SVG Version: 6.00 Build 0)  -->
<!DOCTYPE svg PUBLIC "-//W3C//DTD SVG 1.1//EN" "http://www.w3.org/Graphics/SVG/1.1/DTD/svg11.dtd">
<svg version="1.1" id="Layer_1" xmlns="http://www.w3.org/2000/svg" xmlns:xlink="http://www.w3.org/1999/xlink" x="0px" y="0px"
	 width="24px" height="24px" viewBox="0 0 24 24" enable-background="new 0 0 24 24" xml:space="preserve">
<g>
	<path fill="#010101" d="M20,2H4C2.9,2,2,2.9,2,4v16c0,1.1,0.9,2,2,2h16c1.1,0,2-0.9,2-2V4C22,2.9,21.1,2,20,2z M20,16.8
		c0,0.9-0.7,1.6-1.6,1.6H5.6c-0.9,0-1.6-0.7-1.6-1.6V7.2c0-0.9,0.7-1.6,1.6-1.6h12.8c0.9,0,1.6,0.7,1.6,1.6V16.8z"/>
	<path fill="#010101" d="M5.6,16.8h12.8V7.2H5.6V16.8z M15.6,8.8c0.7,0,1.2,0.5,1.2,1.2s-0.5,1.2-1.2,1.2c-0.7,0-1.2-0.5-1.2-1.2
		S14.9,8.8,15.6,8.8z M7.2,12l1.6-1.6l3.2,2.4l1.6-0.8l3.2,1.9v1.3H7.2V12z"/>
</g>
</svg>
