<?xml version="1.0" encoding="utf-8"?>
<!-- Generator: Adobe Illustrator 18.0.0, SVG Export Plug-In . SVG Version: 6.00 Build 0)  -->
<!DOCTYPE svg PUBLIC "-//W3C//DTD SVG 1.1//EN" "http://www.w3.org/Graphics/SVG/1.1/DTD/svg11.dtd">
<svg version="1.1" id="Layer_1" xmlns="http://www.w3.org/2000/svg" xmlns:xlink="http://www.w3.org/1999/xlink" x="0px" y="0px"
	 width="50px" height="100px" viewBox="0 0 50 100" enable-background="new 0 0 50 100" xml:space="preserve">
<path fill="#BE1E2D" d="M20.9,95.5L18.2,90l-5.3,10H3V80l10.9-13.2c0,0-3.2-20.9,1.1-39.4S25,0,25,0c0,0,5.8,8.7,10,27.3
	s1.1,39.4,1.1,39.4L47,80v20h-9.8l-5.3-10l-2.8,5.5H25C25,95.5,20.9,95.5,20.9,95.5z M25,26.5c-1.9,0-3.4,1.5-3.4,3.4
	s1.5,3.4,3.4,3.4s3.4-1.5,3.4-3.4S26.9,26.5,25,26.5z M25,39c-1.9,0-3.4,1.5-3.4,3.4c0,1.9,1.5,3.4,3.4,3.4s3.4-1.5,3.4-3.4
	C28.4,40.5,26.9,39,25,39z M25,51.5c-1.9,0-3.4,1.5-3.4,3.4c0,1.9,1.5,3.4,3.4,3.4s3.4-1.5,3.4-3.4C28.4,53,26.9,51.5,25,51.5z"/>
</svg>
