<?xml version="1.0" encoding="utf-8"?>
<!-- Generator: Adobe Illustrator 18.0.0, SVG Export Plug-In . SVG Version: 6.00 Build 0)  -->
<!DOCTYPE svg PUBLIC "-//W3C//DTD SVG 1.1//EN" "http://www.w3.org/Graphics/SVG/1.1/DTD/svg11.dtd">
<svg version="1.1" id="Layer_1" xmlns="http://www.w3.org/2000/svg" xmlns:xlink="http://www.w3.org/1999/xlink" x="0px" y="0px"
	 width="24px" height="24px" viewBox="0 0 24 24" enable-background="new 0 0 24 24" xml:space="preserve">
<g>
	<g>
		<g>
			<path fill="#231F20" d="M9,4c2.8,0,5,2.2,5,5s-2.2,5-5,5c-2.8,0-5-2.2-5-5S6.2,4,9,4 M9,2C5.1,2,2,5.1,2,9s3.1,7,7,7
				c3.9,0,7-3.1,7-7S12.9,2,9,2L9,2z"/>
		</g>
	</g>
	<g>
		<polygon fill="#010101" points="22,20.3 20.3,22 14,15.7 14,14 15.7,14 		"/>
		
			<rect x="13.8" y="12.6" transform="matrix(0.7071 -0.7071 0.7071 0.7071 -5.974 14.4228)" fill="#010101" width="1.2" height="3.6"/>
	</g>
</g>
</svg>
