<svg xmlns="http://www.w3.org/2000/svg" style="display: none;"><symbol viewBox="0 0 24 24" id="icon-browse"><title>browse</title> <g> <rect x="3" y="3" width="4" height="4"/> <rect x="3" y="10" width="4" height="4"/> <rect x="3" y="17" width="4" height="4"/> <rect x="10" y="3" width="4" height="4"/> <rect x="10" y="10" width="4" height="4"/> <rect x="10" y="17" width="4" height="4"/> <rect x="17" y="3" width="4" height="4"/> <rect x="17" y="10" width="4" height="4"/> <rect x="17" y="17" width="4" height="4"/> </g> </symbol><symbol viewBox="0 0 24 24" id="icon-calendar"><title>calendar</title> <g> <rect x="6" y="2" fill-rule="evenodd" clip-rule="evenodd" width="2" height="4"/> <rect x="16" y="2" fill-rule="evenodd" clip-rule="evenodd" width="2" height="4"/> <path d="M19,4H5C3.9,4,3,4.9,3,6v14c0,1.1,0.9,2,2,2h14c1.1,0,2-0.9,2-2V6C21,4.9,20.1,4,19,4z M19,20H5V9h14V20z"/> <rect x="12" y="13" fill-rule="evenodd" clip-rule="evenodd" width="5" height="5"/> </g> </symbol><symbol viewBox="0 0 24 24" id="icon-comment"><title>comment</title> <g> <path d="M20,7h-2v5c0,1.7-1.3,3-3,3H7v2c0,1.1,0.9,2,2,2h10l3,3V9C22,7.9,21.1,7,20,7z"/> <path d="M15,2H4C2.9,2,2,2.9,2,4v13l3-3h10c1.1,0,2-0.9,2-2V4C17,2.9,16.1,2,15,2z"/> </g> </symbol><symbol viewBox="0 0 24 24" id="icon-compass"><title>compass</title> <g> <g> <circle cx="12" cy="12" r="1.1"/> </g> <g> <path d="M12,2C6.5,2,2,6.5,2,12s4.5,10,10,10c5.5,0,10-4.5,10-10S17.5,2,12,2z M14.1,14.1L6,18l3.9-8.1L18,6L14.1,14.1z"/> </g> </g> </symbol><symbol viewBox="0 0 24 24" id="icon-crop"><title>crop</title> <path d="M20,2H4C2.9,2,2,2.9,2,4v16c0,1.1,0.9,2,2,2h16c1.1,0,2-0.9,2-2V4C22,2.9,21.1,2,20,2z M20,10H10v10H8V10H4V8h4V4h2v4h10V10
	z"/> </symbol><symbol viewBox="0 0 24 24" id="icon-edit"><title>edit</title> <g> <path d="M21.7,4.9l-2.6-2.6c-0.4-0.4-1-0.4-1.4,0L16,4l4,4l1.7-1.7C22.1,5.9,22.1,5.2,21.7,4.9z"/> <polygon points="15,5.1 2,18 2,22 6,22 18.9,9 	"/> </g> </symbol><symbol viewBox="0 0 24 24" id="icon-filter"><title>filter</title> <path d="M20,2H4C2.9,2,2,2.9,2,4v16c0,1.1,0.9,2,2,2h16c1.1,0,2-0.9,2-2V4C22,2.9,21.1,2,20,2z M17,16.5h-6.8
	C10,16.9,9.5,17.2,9,17.2c-0.5,0-0.9-0.3-1.1-0.7H7v-1h0.9c0.2-0.4,0.6-0.7,1.1-0.7c0.5,0,0.9,0.3,1.1,0.7H17V16.5z M17,12.5h-0.9
	c-0.2,0.4-0.6,0.7-1.1,0.7c-0.5,0-0.9-0.3-1.1-0.7H7v-1h6.8c0.2-0.4,0.6-0.7,1.1-0.7c0.5,0,0.9,0.3,1.1,0.7H17V12.5z M17,8.5h-6.9
	C9.9,8.9,9.5,9.2,9,9.2S8.1,8.9,7.9,8.5H7v-1h0.9C8.1,7,8.5,6.7,9,6.7c0.5,0,1,0.3,1.2,0.8H17V8.5z"/> </symbol><symbol viewBox="0 0 24 24" id="icon-forward"><title>forward</title> <g> <path d="M15,4.5l7,7l-7,7v-4c-12,0-13,5-13,5s1-11,13-11V4.5z"/> </g> </symbol><symbol viewBox="0 0 24 24" id="icon-help"><title>help</title> <g> <path d="M13,17h-2v-2h2V17z"/> <g> <path d="M12,4c4.4,0,8,3.6,8,8s-3.6,8-8,8c-4.4,0-8-3.6-8-8S7.6,4,12,4 M12,2C6.5,2,2,6.5,2,12s4.5,10,10,10c5.5,0,10-4.5,10-10
			S17.5,2,12,2L12,2z"/> </g> <g> <path d="M11,14c0-1.4,0.6-1.9,1.1-2.4c0.3-0.3,0.5-0.5,0.6-0.8c0.2-0.3,0.2-0.6,0.2-1c0-0.4-0.1-0.7-0.3-1
			c-0.2-0.2-0.4-0.4-0.8-0.4c-0.3,0-1,0.1-1,1.5H9l0-0.4c0-0.9,0.3-1.5,0.8-2C10.4,7.2,11.1,7,11.9,7c1,0,1.7,0.3,2.2,0.8
			c0.5,0.5,0.8,1.2,0.8,2c0,2.4-2,2.5-2,4.2H11z"/> </g> </g> </symbol><symbol viewBox="0 0 24 24" id="icon-info"><title>info</title> <path d="M2,4v16c0,1.1,0.9,2,2,2h16c1.1,0,2-0.9,2-2V4c0-1.1-0.9-2-2-2H4C2.9,2,2,2.9,2,4z M17,9H7V7h10V9z M17,13H7
	v-2h10V13z M14,17H7v-2h7V17z"/> </symbol><symbol viewBox="0 0 24 24" id="icon-label"><title>label</title> <path d="M21.4,12.6L10.9,2H2l0,8.8l10.5,10.5c0.8,0.8,2.1,0.8,3,0l5.9-5.9C22.2,14.7,22.2,13.4,21.4,12.6z M4,5.5C4,4.7,4.7,4,5.5,4
	C6.3,4,7,4.7,7,5.5C7,6.3,6.3,7,5.5,7C4.7,7,4,6.3,4,5.5z"/> </symbol><symbol viewBox="0 0 24 24" id="icon-like"><title>like</title> <path d="M16.4,3C14.6,3,13,3.9,12,5.3C11,3.9,9.4,3,7.6,3C4.5,3,2,5.5,2,8.6C2,13,12,21,12,21s10-8,10-12.4
	C22,5.5,19.5,3,16.4,3z"/> </symbol><symbol viewBox="0 0 24 24" id="icon-lock_closed"><title>lock_closed</title> <path d="M20,20V10c0-1.1-0.9-2-2-2H6c-1.1,0-2,0.9-2,2v10c0,1.1,0.9,2,2,2h12C19.1,22,20,21.1,20,20z M14,15c0,1.1-0.9,2-2,2
	c-1.1,0-2-0.9-2-2c0-1.1,0.9-2,2-2C13.1,13,14,13.9,14,15z"/> <path d="M18,12h-2V7c0-2.2-1.8-4-4-4C9.8,3,8,4.8,8,7v5H6V7c0-3.3,2.7-6,6-6s6,2.7,6,6V12z"/> </symbol><symbol viewBox="0 0 24 24" id="icon-message_open"><title>message_open</title> <g> <g> <path d="M12,4.3l8,4.8V20H4V9.1L12,4.3 M12,2L3,7.4c-0.6,0.4-1,1-1,1.7V20c0,1.1,0.9,2,2,2h16c1.1,0,2-0.9,2-2V9.1
			c0-0.7-0.4-1.4-1-1.7L12,2L12,2z"/> </g> <g> <path d="M12,15L4,9L2,9.1V20c0,1.1,0.9,2,2,2h16c1.1,0,2-0.9,2-2V9.1L20,9L12,15z"/> </g> </g> </symbol><symbol viewBox="0 0 24 24" id="icon-next"><title>next</title> <polygon points="8.2,21.7 6.8,20.3 15.1,12 6.8,3.7 8.2,2.3 17.9,12 "/> </symbol><symbol viewBox="0 0 24 24" id="icon-prev"><title>prev</title> <polygon points="15.8,21.7 6.1,12 15.8,2.3 17.2,3.7 8.9,12 17.2,20.3 "/> </symbol><symbol viewBox="0 0 24 24" id="icon-publish"><title>publish</title> <g> <path d="M20,2H4C2.9,2,2,2.9,2,4v16c0,1.1,0.9,2,2,2h16c1.1,0,2-0.9,2-2V4C22,2.9,21.1,2,20,2z M20,16.8
		c0,0.9-0.7,1.6-1.6,1.6H5.6c-0.9,0-1.6-0.7-1.6-1.6V7.2c0-0.9,0.7-1.6,1.6-1.6h12.8c0.9,0,1.6,0.7,1.6,1.6V16.8z"/> <path d="M5.6,16.8h12.8V7.2H5.6V16.8z M15.6,8.8c0.7,0,1.2,0.5,1.2,1.2s-0.5,1.2-1.2,1.2c-0.7,0-1.2-0.5-1.2-1.2
		S14.9,8.8,15.6,8.8z M7.2,12l1.6-1.6l3.2,2.4l1.6-0.8l3.2,1.9v1.3H7.2V12z"/> </g> </symbol><symbol viewBox="0 0 50 100" id="icon-rocket"><title>rocket</title> <path d="M20.9,95.5L18.2,90l-5.3,10H3V80l10.9-13.2c0,0-3.2-20.9,1.1-39.4S25,0,25,0c0,0,5.8,8.7,10,27.3
	s1.1,39.4,1.1,39.4L47,80v20h-9.8l-5.3-10l-2.8,5.5H25C25,95.5,20.9,95.5,20.9,95.5z M25,26.5c-1.9,0-3.4,1.5-3.4,3.4
	s1.5,3.4,3.4,3.4s3.4-1.5,3.4-3.4S26.9,26.5,25,26.5z M25,39c-1.9,0-3.4,1.5-3.4,3.4c0,1.9,1.5,3.4,3.4,3.4s3.4-1.5,3.4-3.4
	C28.4,40.5,26.9,39,25,39z M25,51.5c-1.9,0-3.4,1.5-3.4,3.4c0,1.9,1.5,3.4,3.4,3.4s3.4-1.5,3.4-3.4C28.4,53,26.9,51.5,25,51.5z"/> </symbol><symbol viewBox="0 0 24 24" id="icon-search"><title>search</title> <g> <g> <g> <path d="M9,4c2.8,0,5,2.2,5,5s-2.2,5-5,5c-2.8,0-5-2.2-5-5S6.2,4,9,4 M9,2C5.1,2,2,5.1,2,9s3.1,7,7,7
				c3.9,0,7-3.1,7-7S12.9,2,9,2L9,2z"/> </g> </g> <g> <polygon points="22,20.3 20.3,22 14,15.7 14,14 15.7,14 		"/> <rect x="13.8" y="12.6" transform="matrix(0.7071 -0.7071 0.7071 0.7071 -5.974 14.4228)" width="1.2" height="3.6"/> </g> </g> </symbol><symbol viewBox="0 0 24 24" id="icon-settings"><title>settings</title> <path d="M19.4,13c0-0.3,0.1-0.7,0.1-1s0-0.7-0.1-1l2.1-1.5c0.2-0.1,0.3-0.4,0.1-0.7l-2-3.5C19.5,5,19.2,4.9,19,5
	l-2.4,1.1c-0.5-0.4-1.2-0.8-1.8-1l-0.3-2.6C14.5,2.2,14.3,2,14,2H10C9.7,2,9.5,2.2,9.5,2.5L9.2,5c-0.7,0.3-1.3,0.6-1.8,1L5,5
	C4.8,4.9,4.5,5,4.4,5.2l-2,3.5C2.2,9,2.2,9.3,2.5,9.4L4.6,11c0,0.3-0.1,0.7-0.1,1s0,0.7,0.1,1l-2.1,1.5c-0.2,0.1-0.3,0.4-0.1,0.7
	l2,3.5C4.5,19,4.8,19.1,5,19l2.4-1.1c0.5,0.4,1.2,0.8,1.8,1l0.3,2.6c0,0.3,0.2,0.5,0.5,0.5H14c0.3,0,0.5-0.2,0.5-0.5l0.3-2.6
	c0.7-0.3,1.3-0.6,1.8-1L19,19c0.2,0.1,0.5,0,0.6-0.2l2-3.5c0.1-0.2,0.1-0.5-0.1-0.7L19.4,13z M12,16c-2.2,0-4-1.8-4-4s1.8-4,4-4
	s4,1.8,4,4S14.2,16,12,16z"/> </symbol><symbol viewBox="0 0 24 24" id="icon-stop"><title>stop</title> <g> <path d="M12,2C6.5,2,2,6.5,2,12s4.5,10,10,10c5.5,0,10-4.5,10-10S17.5,2,12,2z M17,15.5l-1.4,1.4L12,13.4l-3.5,3.5
		L7,15.5l3.5-3.5L7,8.5l1.4-1.4l3.5,3.5l3.5-3.5L17,8.5L13.4,12L17,15.5z"/> </g> </symbol><symbol viewBox="0 0 24 24" id="icon-upload"><title>upload</title> <path d="M20,2H4C2.9,2,2,2.9,2,4v16c0,1.1,0.9,2,2,2h16c1.1,0,2-0.9,2-2V4C22,2.9,21.1,2,20,2z M12,18.1l-3.5-4.6
	h2.3V8.9h2.3v4.6h2.3L12,18.1z M17.8,7.9H6.2V6.3h11.5V7.9z"/> </symbol><symbol viewBox="0 0 24 24" id="icon-user"><title>user</title> <circle cx="12" cy="8" r="4"/> <path d="M12,14c-6.1,0-8,4-8,4v2h16v-2C20,18,18.1,14,12,14z"/> </symbol><symbol viewBox="0 0 24 24" id="icon-verdots"><title>verdots</title> <g> <circle cx="12" cy="12" r="2"/> <circle cx="12" cy="5" r="2"/> <circle cx="12" cy="19" r="2"/> </g> </symbol></svg>