<?xml version="1.0" encoding="utf-8"?>
<!-- Generator: Adobe Illustrator 18.0.0, SVG Export Plug-In . SVG Version: 6.00 Build 0)  -->
<!DOCTYPE svg PUBLIC "-//W3C//DTD SVG 1.1//EN" "http://www.w3.org/Graphics/SVG/1.1/DTD/svg11.dtd">
<svg version="1.1" id="Layer_1" xmlns="http://www.w3.org/2000/svg" xmlns:xlink="http://www.w3.org/1999/xlink" x="0px" y="0px"
	 viewBox="0 0 416 718.3" enable-background="new 0 0 416 718.3" xml:space="preserve">
<g>
	<path d="M180,0h12v4h-12V0z"/>
	<polyline fill="none" stroke="#000000" stroke-width="2" stroke-miterlimit="10" points="10.5,595 1.5,586 10.5,577 	"/>
	<rect x="92" fill-rule="evenodd" clip-rule="evenodd" width="2" height="4"/>
	<rect x="102" fill-rule="evenodd" clip-rule="evenodd" width="2" height="4"/>
	<g>
		<g>
			<path fill="#231F20" d="M139,2c2.8,0,5,2.2,5,5s-2.2,5-5,5c-2.8,0-5-2.2-5-5S136.2,2,139,2 M139,0c-3.9,0-7,3.1-7,7s3.1,7,7,7
				c3.9,0,7-3.1,7-7S142.9,0,139,0L139,0z"/>
		</g>
	</g>
	<g>
		<path d="M194,92v12h-16V92H194 M194,90h-16c-1.1,0-2,0.9-2,2v12c0,1.1,0.9,2,2,2h16c1.1,0,2-0.9,2-2V92C196,90.9,195.1,90,194,90
			L194,90z"/>
	</g>
	<line fill="none" stroke="#000000" stroke-width="2" stroke-miterlimit="10" x1="44" y1="107" x2="64" y2="107"/>
	<polygon points="54,88 48,96 52,96 52,104 56,104 56,96 60,96 	"/>
	<line fill="none" stroke="#000000" stroke-width="2" stroke-miterlimit="10" x1="20" y1="89" x2="0" y2="89"/>
	<polygon points="10,108 16,100 12,100 12,92 8,92 8,100 4,100 	"/>
	<polygon points="101,630 108,625 101,620 	"/>
	<path fill="none" stroke="#000000" stroke-width="4" stroke-miterlimit="10" d="M90,640v-9c0-3.3,2.7-6,6-6h8"/>
	<polygon points="142,633 147,640 152,633 	"/>
	<path fill="none" stroke="#000000" stroke-width="4" stroke-miterlimit="10" d="M132,622h9c3.3,0,6,2.7,6,6v8"/>
	<polygon points="183,630 176,635 183,640 	"/>
	<path fill="none" stroke="#000000" stroke-width="4" stroke-miterlimit="10" d="M194,620v9c0,3.3-2.7,6-6,6h-8"/>
	<polygon points="230,627 225,620 220,627 	"/>
	<path fill="none" stroke="#000000" stroke-width="4" stroke-miterlimit="10" d="M240,638h-9c-3.3,0-6-2.7-6-6v-8"/>
	<polygon points="271,630 264,625 271,620 	"/>
	<path fill="none" stroke="#000000" stroke-width="4" stroke-miterlimit="10" d="M282,640v-9c0-3.3-2.7-6-6-6h-8"/>
	<polygon points="318,633 313,640 308,633 	"/>
	<path fill="none" stroke="#000000" stroke-width="4" stroke-miterlimit="10" d="M328,622h-9c-3.3,0-6,2.7-6,6v8"/>
	<polygon points="365,630 372,635 365,640 	"/>
	<path fill="none" stroke="#000000" stroke-width="4" stroke-miterlimit="10" d="M354,620v9c0,3.3,2.7,6,6,6h8"/>
	<polygon points="406,627 411,620 416,627 	"/>
	<path fill="none" stroke="#000000" stroke-width="4" stroke-miterlimit="10" d="M396,638h9c3.3,0,6-2.7,6-6v-8"/>
	<path d="M132,530v16c0,1.1,0.9,2,2,2h16c1.1,0,2-0.9,2-2v-16c0-1.1-0.9-2-2-2h-16C132.9,528,132,528.9,132,530z M147,535h-10v-2h10
		V535z M147,539h-10v-2h10V539z M144,543h-7v-2h7V543z"/>
	<path d="M176,530v16c0,1.1,0.9,2,2,2h16c1.1,0,2-0.9,2-2v-16c0-1.1-0.9-2-2-2h-16C176.9,528,176,528.9,176,530z M194,543h-16v-10
		h16V543z"/>
	<g>
		<path d="M238,530v16h-16v-16H238 M238,528h-16c-1.1,0-2,0.9-2,2v16c0,1.1,0.9,2,2,2h16c1.1,0,2-0.9,2-2v-16
			C240,528.9,239.1,528,238,528L238,528z"/>
	</g>
	<line fill="none" stroke="#000000" stroke-width="2" stroke-miterlimit="10" x1="20" y1="586" x2="1.5" y2="586"/>
	<polyline fill="none" stroke="#000000" stroke-width="2" stroke-miterlimit="10" points="53.5,577 62.5,586 53.5,595 	"/>
	<line fill="none" stroke="#000000" stroke-width="2" stroke-miterlimit="10" x1="44" y1="586" x2="62.5" y2="586"/>
	<polyline fill="none" stroke="#000000" stroke-width="2" stroke-miterlimit="10" points="107,585.5 98,594.5 89,585.5 	"/>
	<line fill="none" stroke="#000000" stroke-width="2" stroke-miterlimit="10" x1="98" y1="576" x2="98" y2="594.5"/>
	<polyline fill="none" stroke="#000000" stroke-width="2" stroke-miterlimit="10" points="133,586.5 142,577.5 151,586.5 	"/>
	<line fill="none" stroke="#000000" stroke-width="2" stroke-miterlimit="10" x1="142" y1="596" x2="142" y2="577.5"/>
	<polyline fill="none" stroke="#000000" stroke-width="2" stroke-miterlimit="10" points="189.5,595 180.5,586 189.5,577 	"/>
	<polyline fill="none" stroke="#000000" stroke-width="2" stroke-miterlimit="10" points="226.5,577 235.5,586 226.5,595 	"/>
	<polyline fill="none" stroke="#000000" stroke-width="2" stroke-miterlimit="10" points="265,589.5 274,580.5 283,589.5 	"/>
	<polyline fill="none" stroke="#000000" stroke-width="2" stroke-miterlimit="10" points="327,582.5 318,591.5 309,582.5 	"/>
	
		<polyline id="Done__x2014__Displayed_on_the_left_side_of_a_contextual_action_bar__x28_CAB_x29__to_allow_the_user_to_dismiss_it._1_" fill-rule="evenodd" clip-rule="evenodd" fill="none" stroke="#000000" stroke-width="2" stroke-miterlimit="10" points="
		414,4 403,15 398,10 	"/>
	<path d="M105,2H91c-1.1,0-2,0.9-2,2v14c0,1.1,0.9,2,2,2h14c1.1,0,2-0.9,2-2V4C107,2.9,106.1,2,105,2z M105,18H91V7h14V18z"/>
	<path d="M12,0H4C2.9,0,2,0.9,2,2v16c0,1.1,0.9,2,2,2h12c1.1,0,2-0.9,2-2V6L12,0z M16.5,7H11V1.5L16.5,7z"/>
	<path d="M62,4h-9l-2-2h-5c-1.1,0-2,0.9-2,2v12c0,1.1,0.9,2,2,2h16c1.1,0,2-0.9,2-2V6C64,4.9,63.1,4,62,4z"/>
	<rect x="98" y="11" fill-rule="evenodd" clip-rule="evenodd" width="5" height="5"/>
	<g>
		<path fill="#231F20" d="M190,13v5h-8v-5H190 M192,11h-12v9h12V11L192,11z"/>
	</g>
	<path d="M192,5h-12c-2.2,0-4,1.8-4,4v6h5v-3h10v3h5V9C196,6.8,194.2,5,192,5z M193,9c-0.6,0-1-0.4-1-1s0.4-1,1-1s1,0.4,1,1
		S193.6,9,193,9z"/>
	<path d="M18,486H2c-1.1,0-2,0.9-2,2v12c0,1.1,0.9,2,2,2h16c1.1,0,2-0.9,2-2v-12C20,486.9,19.1,486,18,486z M18,490l-8,5l-8-5v-2
		l8,5l8-5V490z"/>
	<g>
		<path d="M238,488v12h-16v-12H238 M238,486h-16c-1.1,0-2,0.9-2,2v12c0,1.1,0.9,2,2,2h16c1.1,0,2-0.9,2-2v-12
			C240,486.9,239.1,486,238,486L238,486z"/>
	</g>
	<path d="M62,528H46c-1.1,0-2,0.9-2,2v18l4-4h14c1.1,0,2-0.9,2-2v-12C64,528.9,63.1,528,62,528z"/>
	<g>
		<path fill="#231F20" d="M54,484.3l8,4.8V500H46v-10.9L54,484.3 M54,482l-9,5.4c-0.6,0.4-1,1-1,1.7V500c0,1.1,0.9,2,2,2h16
			c1.1,0,2-0.9,2-2v-10.9c0-0.7-0.4-1.4-1-1.7L54,482L54,482z"/>
	</g>
	<g>
		<path d="M54,495l-8-6l-2,0.1V500c0,1.1,0.9,2,2,2h16c1.1,0,2-0.9,2-2v-10.9l-2-0.1L54,495z"/>
	</g>
	<path d="M326,222h-16c-1.1,0-2,0.9-2,2v12c0,1.1,0.9,2,2,2h16c1.1,0,2-0.9,2-2v-12C328,222.9,327.1,222,326,222z M318,235
		c-2.8,0-5-2.2-5-5s2.2-5,5-5c2.8,0,5,2.2,5,5S320.8,235,318,235z"/>
	<circle cx="318" cy="230" r="3.5"/>
	<polygon points="324,223 321,220 315,220 312,223 	"/>
	<g>
		<polygon points="152,18.3 150.3,20 144,13.7 144,12 145.7,12 		"/>
		<rect x="143.8" y="10.6" transform="matrix(0.7071 -0.7071 0.7071 0.7071 33.5164 105.7609)" width="1.2" height="3.6"/>
	</g>
	<path d="M236,18V5h-12v13c0,1.1,0.9,2,2,2h8C235.1,20,236,19.1,236,18z"/>
	<rect x="223" y="2" width="14" height="2"/>
	<polygon points="235,4 232,1 228,1 225,4 	"/>
	<path d="M322.4,2c-1.8,0-3.4,0.9-4.4,2.3c-1-1.4-2.6-2.3-4.4-2.3c-3.1,0-5.6,2.5-5.6,5.6C308,12,318,20,318,20s10-8,10-12.4
		C328,4.5,325.5,2,322.4,2z"/>
	<path d="M366.4,4c2,0,3.6,1.6,3.6,3.6c0,2-3.9,6.4-8,9.8c-4.1-3.5-8-7.9-8-9.8c0-2,1.6-3.6,3.6-3.6c2.4,0,4.4,3,4.4,3
		S363.9,4,366.4,4 M366.4,2c-1.8,0-3.4,0.9-4.4,2.3c-1-1.4-2.6-2.3-4.4-2.3c-3.1,0-5.6,2.5-5.6,5.6C352,12,362,20,362,20
		s10-8,10-12.4C372,4.5,369.5,2,366.4,2L366.4,2z"/>
	<path d="M179,46v18l7-3l7,3V46c0-1.1-0.9-2-2-2h-10C179.9,44,179,44.9,179,46z"/>
	<path d="M100,88h-8c-1.1,0-2,0.9-2,2v16c0,1.1,0.9,2,2,2h12c1.1,0,2-0.9,2-2V94L100,88z M102,100h-8v-2h8V100z M100,104h-6v-2h6
		V104z M99,95v-5.5l5.5,5.5H99z"/>
	<path d="M144,88h-8c-1.1,0-2,0.9-2,2v16c0,1.1,0.9,2,2,2h12c1.1,0,2-0.9,2-2V94L144,88z M146,104h-8v-2.7l1.9-1.4l2.3,2.1l1.7-0.8
		l2,1.2V104z M144.5,100c-0.8,0-1.5-0.7-1.5-1.5s0.7-1.5,1.5-1.5s1.5,0.7,1.5,1.5S145.3,100,144.5,100z M143,95v-5.5l5.5,5.5H143z"
		/>
	<path d="M412,222l2,4h-2.5l-2-4h-2.8l2,4h-2.5l-2-4h-2.8l2,4H401l-2-4h-1c-1.1,0-2,0.9-2,2v12c0,1.1,0.9,2,2,2h16c1.1,0,2-0.9,2-2
		v-14H412z"/>
	<g>
		<circle cx="54" cy="186" r="2"/>
		<circle cx="54" cy="179" r="2"/>
		<circle cx="54" cy="193" r="2"/>
	</g>
	<g>
		<g>
			<circle cx="47.2" cy="709.3" r="2"/>
			<circle cx="47.2" cy="702.3" r="2"/>
			<circle cx="47.2" cy="716.3" r="2"/>
		</g>
		<g>
			<circle cx="54.2" cy="702.3" r="2"/>
			<circle cx="61.2" cy="702.3" r="2"/>
			<circle cx="47.2" cy="702.3" r="2"/>
		</g>
		<g>
			<circle cx="54.2" cy="709.3" r="2"/>
			<circle cx="61.2" cy="709.3" r="2"/>
			<circle cx="47.2" cy="709.3" r="2"/>
		</g>
		<g>
			<circle cx="54.2" cy="716.3" r="2"/>
			<circle cx="61.2" cy="716.3" r="2"/>
			<circle cx="47.2" cy="716.3" r="2"/>
		</g>
	</g>
	<path d="M19.9,537.5l-4.1-8c-0.2-0.3-0.5-0.5-0.9-0.5H5.1c-0.4,0-0.7,0.2-0.9,0.5l-4.1,8c-0.1,0.3-0.1,0.6,0,0.9l4.1,8
		c0.2,0.3,0.5,0.5,0.9,0.5h9.8c0.4,0,0.7-0.2,0.9-0.5l4.1-8C20.1,538.2,20.1,537.8,19.9,537.5z M11,543H9v-2h2V543z M11,539H9v-6h2
		V539z"/>
	<path d="M362,484c-5.5,0-10,4.5-10,10s4.5,10,10,10c5.5,0,10-4.5,10-10S367.5,484,362,484z M363,499h-2v-2h2V499z M363,495h-2v-6h2
		V495z"/>
	<path d="M282,62V52c0-1.1-0.9-2-2-2h-12c-1.1,0-2,0.9-2,2v10c0,1.1,0.9,2,2,2h12C281.1,64,282,63.1,282,62z M276,57
		c0,1.1-0.9,2-2,2c-1.1,0-2-0.9-2-2s0.9-2,2-2C275.1,55,276,55.9,276,57z"/>
	<path fill="none" stroke="#231F20" stroke-width="2" stroke-miterlimit="10" d="M279,54c0-0.4,0-4.6,0-5c0-2.8-2.2-5-5-5
		c-2.8,0-5,2.2-5,5c0,0.4,0,4.6,0,5"/>
	<path d="M326,62V52c0-1.1-0.9-2-2-2h-12c-1.1,0-2,0.9-2,2v10c0,1.1,0.9,2,2,2h12C325.1,64,326,63.1,326,62z M320,57
		c0,1.1-0.9,2-2,2c-1.1,0-2-0.9-2-2s0.9-2,2-2C319.1,55,320,55.9,320,57z"/>
	<path fill="none" stroke="#231F20" stroke-width="2" stroke-miterlimit="10" d="M323,54c0-0.4,0-4.6,0-5c0-2.8-2.2-5-5-5
		c-2.4,0-4.4,1.7-4.9,4"/>
	<path d="M238,44h-16c-1.1,0-2,0.9-2,2v16c0,1.1,0.9,2,2,2h16c1.1,0,2-0.9,2-2V46C240,44.9,239.1,44,238,44z M230,48
		c1.7,0,3,1.3,3,3s-1.3,3-3,3c-1.7,0-3-1.3-3-3S228.3,48,230,48z M236,60h-12v-1.3c0-0.5,0.2-0.9,0.6-1.2c0.8-0.6,2.5-1.4,5.4-1.4
		c2.9,0,4.6,0.9,5.4,1.4c0.4,0.3,0.6,0.7,0.6,1.2V60z"/>
	<line fill="none" stroke="#000000" stroke-width="2" stroke-miterlimit="10" x1="10" y1="61" x2="10" y2="47"/>
	<line fill="none" stroke="#000000" stroke-width="2" stroke-miterlimit="10" x1="3" y1="54" x2="17" y2="54"/>
	<line fill="none" stroke="#000000" stroke-width="2" stroke-miterlimit="10" x1="47" y1="54" x2="61" y2="54"/>
	<path fill="none" stroke="#000000" stroke-width="2" stroke-miterlimit="10" d="M184.6,490.1c0.5-0.1,0.9-0.1,1.4-0.1
		c3.9,0,7,3.1,7,7s-3.1,7-7,7c-3.9,0-7-3.1-7-7"/>
	<polygon points="186,495 181,490 186,485 	"/>
	<path d="M281,88h-4.2c-0.4-1.2-1.5-2-2.8-2c-1.3,0-2.4,0.8-2.8,2H267c-1.1,0-2,0.9-2,2v16c0,1.1,0.9,2,2,2h14c1.1,0,2-0.9,2-2V90
		C283,88.9,282.1,88,281,88z M274,88c0.6,0,1,0.4,1,1s-0.4,1-1,1s-1-0.4-1-1S273.4,88,274,88z M281,106h-14V90h2v2h10v-2h2V106z"/>
	<g>
		<path fill="#231F20" d="M326,94v12h-9V94H326 M326,92h-9c-1.1,0-2,0.9-2,2v12c0,1.1,0.9,2,2,2h9c1.1,0,2-0.9,2-2V94
			C328,92.9,327.1,92,326,92L326,92z"/>
	</g>
	<path d="M313,103V90h10v-2h-10c-1.1,0-2,0.9-2,2v13H313z"/>
	<path d="M400.5,89c-1.9,0-3.5,1.6-3.5,3.5s1.6,3.5,3.5,3.5c1.9,0,3.5-1.6,3.5-3.5S402.4,89,400.5,89z M400.5,94
		c-0.8,0-1.5-0.7-1.5-1.5s0.7-1.5,1.5-1.5c0.8,0,1.5,0.7,1.5,1.5S401.3,94,400.5,94z"/>
	<path d="M400.5,100c-1.9,0-3.5,1.6-3.5,3.5s1.6,3.5,3.5,3.5c1.9,0,3.5-1.6,3.5-3.5S402.4,100,400.5,100z M400.5,105
		c-0.8,0-1.5-0.7-1.5-1.5s0.7-1.5,1.5-1.5c0.8,0,1.5,0.7,1.5,1.5S401.3,105,400.5,105z"/>
	<polygon points="407.5,95.5 409.5,97.5 416,91 412,91 	"/>
	<polygon points="404.8,98.2 406.8,100.2 403.7,103.3 402,101 	"/>
	<path d="M403.1,93.1L401,95l11,11h4L403.1,93.1z M406.5,99c-0.3,0-0.5-0.2-0.5-0.5c0-0.3,0.2-0.5,0.5-0.5s0.5,0.2,0.5,0.5
		C407,98.8,406.8,99,406.5,99z"/>
	<path d="M370,44h-16c-1.1,0-2,0.9-2,2v16c0,1.1,0.9,2,2,2h16c1.1,0,2-0.9,2-2V46C372,44.9,371.1,44,370,44z M365.7,59.2L362,57
		l-3.7,2.2l1-4.2l-3.3-2.8l4.3-0.4l1.7-4l1.7,4l4.3,0.4l-3.3,2.8L365.7,59.2z"/>
	<path d="M367,88h-4.2c-0.4-1.2-1.5-2-2.8-2c-1.3,0-2.4,0.8-2.8,2H353c-1.1,0-2,0.9-2,2v13c0,1.1,0.9,2,2,2h14c1.1,0,2-0.9,2-2V90
		C369,88.9,368.1,88,367,88z M360,88c0.6,0,1,0.4,1,1s-0.4,1-1,1s-1-0.4-1-1S359.4,88,360,88z M367,103h-14V90h2v2h10v-2h2V103z"/>
	<path d="M359,99h2v2h-2V99z M363,109h2v-2h-2V109z M363,97h2v-2h-2V97z M371,95v2h2C373,95.9,372.1,95,371,95z M367,109h2v-2h-2
		V109z M359,105h2v-2h-2V105z M371,101h2v-2h-2V101z M361,109v-2h-2C359,108.1,359.9,109,361,109z M367,97h2v-2h-2V97z M371,109
		c1.1,0,2-0.9,2-2h-2V109z M359,97h2v-2C359.9,95,359,95.9,359,97z M371,105h2v-2h-2V105z"/>
	<polygon points="237,488.6 230,493 223,488.6 223,490.6 230,495 237,490.6 	"/>
	<path d="M318,484c-5.5,0-10,4.5-10,10s4.5,10,10,10c5.5,0,10-4.5,10-10S323.5,484,318,484z M321,495l-3,4l-3-4h2v-6h2v6H321z"/>
	<g>
		<path d="M406,490c-0.6,0-1,0.4-1,1v1h2v-1C407,490.4,406.6,490,406,490z"/>
		<circle cx="406" cy="495.5" r="1"/>
		<path d="M406,484c-5.5,0-10,4.5-10,10s4.5,10,10,10c5.5,0,10-4.5,10-10S411.5,484,406,484z M410,498c0,0.6-0.4,1-1,1h-6
			c-0.6,0-1-0.4-1-1v-5c0-0.6,0.4-1,1-1v-1c0-1.7,1.3-3,3-3s3,1.3,3,3v1c0.6,0,1,0.4,1,1V498z"/>
	</g>
	<path d="M325.8,184.1c-0.9-3.5-4-6.1-7.8-6.1c-3,0-5.6,1.6-7,4.1c-2.9,0.5-5,2.9-5,5.9c0,3.3,2.7,6,6,6c1,0,11.9,0,13,0
		c2.8,0,5-2.2,5-5C330,186.5,328.2,184.4,325.8,184.1z M320,187v4h-4v-4h-3l5-5l5,5H320z"/>
	<path d="M369.8,184.1c-0.9-3.5-4-6.1-7.8-6.1c-3,0-5.6,1.6-7,4.1c-2.9,0.5-5,2.9-5,5.9c0,3.3,2.7,6,6,6c1,0,11.9,0,13,0
		c2.8,0,5-2.2,5-5C374,186.5,372.2,184.4,369.8,184.1z M360,187v-4h4v4h3l-5,5l-5-5H360z"/>
	<path d="M106,528H90c-1.1,0-2,0.9-2,2v16c0,1.1,0.9,2,2,2h16c1.1,0,2-0.9,2-2v-16C108,528.9,107.1,528,106,528z M106,536H96v10h-2
		v-10h-4v-2h4v-4h2v4h10V536z"/>
	<polygon points="182,96 186,99 188,98 192,100.4 192,102 180,102 180,98 	"/>
	<circle cx="190.5" cy="95.5" r="1.5"/>
	<g>
		<path d="M238,92v12h-16V92H238 M238,90h-16c-1.1,0-2,0.9-2,2v12c0,1.1,0.9,2,2,2h16c1.1,0,2-0.9,2-2V92C240,90.9,239.1,90,238,90
			L238,90z"/>
	</g>
	<rect x="224" y="94" fill="none" stroke="#000000" stroke-width="2" stroke-miterlimit="10" width="12" height="8"/>
	<path fill="none" stroke="#000000" stroke-width="2" stroke-miterlimit="10" d="M239,141v8c0,1.1-0.9,2-2,2h-14c-1.1,0-2-0.9-2-2
		v-14c0-1.1,0.9-2,2-2h9"/>
	<path d="M276,484h-8c-1.1,0-2,0.9-2,2v16c0,1.1,0.9,2,2,2h12c1.1,0,2-0.9,2-2v-12L276,484z M275,500v-2h-5v-2h5v-2l4,3L275,500z
		 M275,491v-5.5l5.5,5.5H275z"/>
	<path d="M143,59h-2v-2h2V59z M143,55h-2v-6h2V55z"/>
	<g>
		<path d="M142,46c4.4,0,8,3.6,8,8s-3.6,8-8,8s-8-3.6-8-8S137.6,46,142,46 M142,44c-5.5,0-10,4.5-10,10s4.5,10,10,10
			c5.5,0,10-4.5,10-10S147.5,44,142,44L142,44z"/>
	</g>
	<path d="M275,147h-2v-2h2V147z"/>
	<g>
		<path d="M274,134c4.4,0,8,3.6,8,8s-3.6,8-8,8s-8-3.6-8-8S269.6,134,274,134 M274,132c-5.5,0-10,4.5-10,10s4.5,10,10,10
			c5.5,0,10-4.5,10-10S279.5,132,274,132L274,132z"/>
	</g>
	<path d="M369,545.5c0-2.2,0-4,0-4.5c0-3.9-3.1-7-7-7c-3.9,0-7,3.1-7,7c0,0.4,0,2.3,0,4.5l-2,2.3v1.2h18v-1.2L369,545.5z"/>
	<path d="M363.5,533.5c0-0.8-0.7-1.5-1.5-1.5c-0.8,0-1.5,0.7-1.5,1.5c0,0.3,0,4.2,0,4.5c0,0.8,0.7,1.5,1.5,1.5
		c0.8,0,1.5-0.7,1.5-1.5C363.5,537.7,363.5,533.8,363.5,533.5z"/>
	<path d="M362,552c1.1,0,2-0.9,2-2h-4C360,551.1,360.9,552,362,552z"/>
	<path d="M407.5,533.5c0-0.8-0.7-1.5-1.5-1.5c-0.8,0-1.5,0.7-1.5,1.5c0,0.3,0,1.9,0,1.9l3,2.6C407.5,538,407.5,533.8,407.5,533.5z"
		/>
	<path d="M406,552c1.1,0,2-0.9,2-2h-4C404,551.1,404.9,552,406,552z"/>
	<rect x="405" y="528.9" transform="matrix(0.7071 -0.7071 0.7071 0.7071 -264.3372 445.8335)" width="2" height="26.2"/>
	<g>
		<path d="M413,544.8c0-1.9,0-3.4,0-3.8c0-3.9-3.1-7-7-7c-1.1,0-2.1,0.3-3.1,0.7L413,544.8z"/>
		<path d="M401.3,535.9c-1.4,1.3-2.3,3.1-2.3,5.1c0,0.4,0,2.3,0,4.5l-2,2.3v1.2h17.4L401.3,535.9z"/>
	</g>
	<path d="M62,132H46c-1.1,0-2,0.9-2,2v16c0,1.1,0.9,2,2,2h16c1.1,0,2-0.9,2-2v-16C64,132.9,63.1,132,62,132z M59.6,138.8
		c0,0.1,0,0.2,0,0.4c0,3.8-2.9,8.2-8.2,8.2c-1.6,0-3.1-0.5-4.4-1.3c0.2,0,0.5,0,0.7,0c1.3,0,2.6-0.5,3.6-1.2c-1.3,0-2.3-0.9-2.7-2
		c0.2,0,0.4,0.1,0.5,0.1c0.3,0,0.5,0,0.8-0.1c-1.3-0.3-2.3-1.4-2.3-2.8c0,0,0,0,0,0c0.4,0.2,0.8,0.3,1.3,0.4
		c-0.8-0.5-1.3-1.4-1.3-2.4c0-0.5,0.1-1,0.4-1.4c1.4,1.7,3.5,2.9,5.9,3c0-0.2-0.1-0.4-0.1-0.7c0-1.6,1.3-2.9,2.9-2.9
		c0.8,0,1.6,0.3,2.1,0.9c0.7-0.1,1.3-0.4,1.8-0.7c-0.2,0.7-0.7,1.2-1.3,1.6c0.6-0.1,1.1-0.2,1.7-0.5
		C60.6,137.9,60.1,138.4,59.6,138.8z"/>
	<path d="M18,132H2c-1.1,0-2,0.9-2,2v16c0,1.1,0.9,2,2,2h16c1.1,0,2-0.9,2-2v-16C20,132.9,19.1,132,18,132z M16.4,137.4H15
		c-0.9,0-1,0.3-1,1l0,1.3h2.1L16,142h-1.9v7h-3.2v-7H9.7v-2.4h1.2v-1.5c0-2,0.8-3.1,3.1-3.1h2.4V137.4z"/>
	<g>
		<path d="M370,134v16h-16v-16H370 M370,132h-16c-1.1,0-2,0.9-2,2v16c0,1.1,0.9,2,2,2h16c1.1,0,2-0.9,2-2v-16
			C372,132.9,371.1,132,370,132L370,132z"/>
	</g>
	<path d="M149.8,140.1c-0.9-3.5-4-6.1-7.8-6.1c-3,0-5.6,1.6-7,4.1c-2.8,0.5-5,2.9-5,5.9c0,3.3,2.7,6,6,6c1,0,11.9,0,13,0
		c2.8,0,5-2.2,5-5C154,142.5,152.2,140.4,149.8,140.1z M140.3,147l-3.3-3.3l1-1l2.3,2.3l5.7-5.7l1,1L140.3,147z"/>
	<path d="M149.8,184.1c-0.9-3.5-4-6.1-7.8-6.1c-3,0-5.6,1.6-7,4.1c-2.8,0.5-5,2.9-5,5.9c0,3.3,2.7,6,6,6c1,0,11.9,0,13,0
		c2.8,0,5-2.2,5-5C154,186.5,152.2,184.4,149.8,184.1z"/>
	<path fill="none" stroke="#000000" stroke-width="2" stroke-miterlimit="10" d="M98,63c-5,0-9-4-9-9s4-9,9-9c5,0,9,4,9,9
		S103,63,98,63z"/>
	<polyline fill="none" stroke="#000000" stroke-width="2" stroke-miterlimit="10" points="98,49 98,54 101,57 	"/>
	<g>
		<path d="M98.2,140.1c0-1-0.6-2.7-1.8-2.7c-0.4,0-0.8,0.2-1,0.5c-0.2,0.3-0.3,0.7-0.3,1.1c0,1,0.6,2.6,1.8,2.6c0.4,0,0.8-0.2,1-0.4
			C98.2,140.9,98.2,140.4,98.2,140.1z"/>
		<path d="M97.4,143.9c-0.1,0-0.2,0-0.3,0c-0.1,0-0.9,0-1.5,0.2c-0.3,0.1-1.3,0.5-1.3,1.5c0,1,1,1.8,2.6,1.8c1.4,0,2.1-0.7,2.1-1.6
			C99,145.1,98.5,144.7,97.4,143.9z"/>
		<path d="M98,132c-5.5,0-10,4.5-10,10s4.5,10,10,10c5.5,0,10-4.5,10-10S103.5,132,98,132z M96.1,148c-2.1,0-3.1-1-3.1-2.1
			c0-0.5,0.3-1.3,1.1-1.8c0.9-0.5,2.1-0.6,2.8-0.7c-0.2-0.3-0.4-0.5-0.4-1c0-0.2,0.1-0.4,0.1-0.6c-0.2,0-0.3,0-0.5,0
			c-1.6,0-2.4-1.1-2.4-2.3c0-0.7,0.3-1.4,0.9-1.9c0.8-0.7,1.8-0.8,2.6-0.8h3l-0.9,0.5h-0.9c0.3,0.3,1,0.9,1,2c0,1.1-0.6,1.6-1.2,2.1
			c-0.2,0.2-0.4,0.4-0.4,0.7c0,0.3,0.2,0.5,0.4,0.6l0.5,0.4c0.6,0.5,1.2,1,1.2,2C100,146.6,98.7,148,96.1,148z M105,143h-2v2h-1v-2
			h-2v-1h2v-2h1v2h2V143z"/>
	</g>
	
		<polyline id="Done__x2014__Displayed_on_the_left_side_of_a_contextual_action_bar__x28_CAB_x29__to_allow_the_user_to_dismiss_it._2_" fill-rule="evenodd" clip-rule="evenodd" fill="none" stroke="#000000" stroke-width="2" stroke-miterlimit="10" points="
		195.2,135.6 185.2,145.2 180.8,140.8 	"/>
	
		<polyline id="Done__x2014__Displayed_on_the_left_side_of_a_contextual_action_bar__x28_CAB_x29__to_allow_the_user_to_dismiss_it._3_" fill-rule="evenodd" clip-rule="evenodd" fill="none" stroke="#000000" stroke-width="2" stroke-miterlimit="10" points="
		239.2,134.6 229.2,145.2 224.8,140.8 	"/>
	<path d="M193.9,143c-0.5,3.9-3.9,7-7.9,7c-4.4,0-8-3.6-8-8s3.6-8,8-8c1.4,0,2.7,0.4,3.9,1l1.5-1.5c-1.5-1-3.4-1.6-5.4-1.6
		c-5.5,0-10,4.5-10,10s4.5,10,10,10c5.2,0,9.4-3.9,9.9-9H193.9z"/>
	<g>
		<path d="M273,144c0-1.4,0.6-1.9,1.1-2.4c0.3-0.3,0.5-0.5,0.6-0.8c0.2-0.3,0.2-0.6,0.2-1c0-0.4-0.1-0.7-0.3-1
			c-0.2-0.2-0.4-0.4-0.8-0.4c-0.3,0-1,0.1-1,1.5H271l0-0.4c0-0.9,0.3-1.5,0.8-2c0.5-0.4,1.3-0.7,2.1-0.7c1,0,1.7,0.3,2.2,0.8
			c0.5,0.5,0.8,1.2,0.8,2c0,2.4-2,2.5-2,4.2H273z"/>
	</g>
	<g>
		<path d="M274,178c4.4,0,8,3.6,8,8s-3.6,8-8,8s-8-3.6-8-8S269.6,178,274,178 M274,176c-5.5,0-10,4.5-10,10s4.5,10,10,10
			c5.5,0,10-4.5,10-10S279.5,176,274,176L274,176z"/>
	</g>
	<g>
		<path d="M318,132c-5.5,0-10,4.5-10,10s4.5,10,10,10c5.5,0,10-4.5,10-10S323.5,132,318,132z M323,145.5l-1.4,1.4l-3.5-3.5l-3.5,3.5
			l-1.4-1.4l3.5-3.5l-3.5-3.5l1.4-1.4l3.5,3.5l3.5-3.5l1.4,1.4l-3.5,3.5L323,145.5z"/>
	</g>
	<polygon points="228,536 228,532 232,532 232,536 235,536 230,541 225,536 	"/>
	<path d="M233,542c0,1.7-1.3,3-3,3c-1.7,0-3-1.3-3-3h-7v4c0,1.1,0.9,2,2,2h16c1.1,0,2-0.9,2-2v-4H233z"/>
	<g>
		<path d="M414,132h-16c-1.1,0-2,0.9-2,2v16c0,1.1,0.9,2,2,2h16c1.1,0,2-0.9,2-2v-16C416,132.9,415.1,132,414,132z M403.3,147.7
			l-5-5l1.4-1.4l3.6,3.6l9-8.7l1.4,1.4L403.3,147.7z"/>
	</g>
	<g>
		<path d="M99,179.1c3.4,0.5,6,3.4,6,6.9c0,0.6-0.1,1.2-0.2,1.7l2.8,1.2c0.3-0.9,0.4-1.9,0.4-2.9c0-5.2-3.9-9.4-9-9.9V179.1z"/>
		<path d="M104,189.6c-1.2,2-3.5,3.4-6,3.4c-3.9,0-7-3.1-7-7c0-3.5,2.6-6.4,6-6.9v-3c-5.1,0.5-9,4.8-9,9.9c0,5.5,4.5,10,10,10
			c3.8,0,7.1-2.1,8.8-5.3L104,189.6z"/>
	</g>
	<g>
		<path d="M18,268v12H2v-12H18 M18,266H2c-1.1,0-2,0.9-2,2v12c0,1.1,0.9,2,2,2h16c1.1,0,2-0.9,2-2v-12C20,266.9,19.1,266,18,266
			L18,266z"/>
	</g>
	<line fill="none" stroke="#000000" stroke-width="2" stroke-miterlimit="10" x1="10" y1="278" x2="10" y2="270"/>
	<line fill="none" stroke="#000000" stroke-width="2" stroke-miterlimit="10" x1="6" y1="274" x2="14" y2="274"/>
	<g>
		<path d="M62,268v12H46v-12H62 M62,266H46c-1.1,0-2,0.9-2,2v12c0,1.1,0.9,2,2,2h16c1.1,0,2-0.9,2-2v-12C64,266.9,63.1,266,62,266
			L62,266z"/>
	</g>
	<line fill="none" stroke="#000000" stroke-width="1.6" stroke-miterlimit="10" x1="51" y1="277" x2="57" y2="271"/>
	<line fill="none" stroke="#000000" stroke-width="1.6" stroke-miterlimit="10" x1="51" y1="271" x2="57" y2="277"/>
	<g>
		<path d="M106,268v12H90v-12H106 M106,266H90c-1.1,0-2,0.9-2,2v12c0,1.1,0.9,2,2,2h16c1.1,0,2-0.9,2-2v-12
			C108,266.9,107.1,266,106,266L106,266z"/>
	</g>
	<g>
		<path d="M101.9,271.1l-1-1c-0.2-0.2-0.4-0.2-0.6,0l-0.7,0.7l1.6,1.6l0.7-0.7C102,271.6,102,271.3,101.9,271.1z"/>
		<polygon points="99.2,271.2 94,276.4 94,278 95.6,278 100.8,272.8 		"/>
	</g>
	<polygon points="280,538 264,536.8 264,529 284,538 264,547 264,539.2 	"/>
	<polyline fill="none" stroke="#000000" stroke-width="2" stroke-miterlimit="10" points="355,580 368,580 368,593 	"/>
	<line fill="none" stroke="#000000" stroke-width="2" stroke-miterlimit="10" x1="354.8" y1="593.2" x2="368" y2="580"/>
	<polyline fill="none" stroke="#000000" stroke-width="2" stroke-miterlimit="10" points="412,579 412,592 399,592 	"/>
	<line fill="none" stroke="#000000" stroke-width="2" stroke-miterlimit="10" x1="398.8" y1="578.8" x2="412" y2="592"/>
	<polyline fill="none" stroke="#000000" stroke-width="2" stroke-miterlimit="10" points="17,636 4,636 4,623 	"/>
	<line fill="none" stroke="#000000" stroke-width="2" stroke-miterlimit="10" x1="17.2" y1="622.8" x2="4" y2="636"/>
	<polyline fill="none" stroke="#000000" stroke-width="2" stroke-miterlimit="10" points="48,637 48,624 61,624 	"/>
	<line fill="none" stroke="#000000" stroke-width="2" stroke-miterlimit="10" x1="61.2" y1="637.2" x2="48" y2="624"/>
	<path d="M364,225v-1c0-1.1-0.9-2-2-2h-1v-1c0-0.6-0.4-1-1-1h-4c-0.6,0-1,0.4-1,1v1h-1c-1.1,0-2,0.9-2,2v14c0,1.1,0.9,2,2,2h8
		c1.1,0,2-0.9,2-2v-1h8v-12H364z M370,229h-2v-2h2V229z M370,235h-2v-2h2V235z M366,229h-2v-2h2V229z M366,235h-2v-2h2V235z
		 M362,229h-2v-2h2V229z M362,235h-2v-2h2V235z"/>
	<path d="M326,533h-2v5c0,1.7-1.3,3-3,3h-8v2c0,1.1,0.9,2,2,2h10l3,3v-13C328,533.9,327.1,533,326,533z"/>
	<path d="M321,528h-11c-1.1,0-2,0.9-2,2v13l3-3h10c1.1,0,2-0.9,2-2v-8C323,528.9,322.1,528,321,528z"/>
	<line fill="none" stroke="#000000" stroke-width="2" stroke-miterlimit="10" x1="398" y1="664" x2="398" y2="684"/>
	<rect x="400" y="664" width="15" height="13"/>
	<line fill="none" stroke="#000000" stroke-width="2" stroke-miterlimit="10" x1="177" y1="176" x2="177" y2="196"/>
	<rect x="179" y="176" width="11" height="10"/>
	<rect x="185" y="179" width="11" height="10"/>
	<path d="M239.5,178.9l-2.1-2.7c-0.1-0.1-0.3-0.2-0.5-0.2h-13.8c-0.2,0-0.4,0.1-0.5,0.2l-2.1,2.7c-0.3,0.4-0.5,0.6-0.5,1V194
		c0,1.1,0.9,2,2,2h16c1.1,0,2-0.9,2-2v-4v-10.1C240,179.5,239.8,179.2,239.5,178.9z M230,192l-5-5h3v-4h4v4h3L230,192z M237,179h-14
		l0.5-1h13L237,179z"/>
	<path d="M281.4,11c0-0.3,0.1-0.7,0.1-1s0-0.7-0.1-1l2.1-1.5c0.2-0.1,0.3-0.4,0.1-0.7l-2-3.5C281.5,3,281.2,2.9,281,3l-2.4,1.1
		c-0.5-0.4-1.2-0.8-1.8-1l-0.3-2.6c0-0.3-0.2-0.5-0.5-0.5H272c-0.3,0-0.5,0.2-0.5,0.5L271.2,3c-0.7,0.3-1.3,0.6-1.8,1L267,3
		c-0.2-0.1-0.5,0-0.6,0.2l-2,3.5c-0.1,0.2-0.1,0.5,0.1,0.7l2.1,1.5c0,0.3-0.1,0.7-0.1,1s0,0.7,0.1,1l-2.1,1.5
		c-0.2,0.1-0.3,0.4-0.1,0.7l2,3.5c0.1,0.2,0.4,0.3,0.6,0.2l2.4-1.1c0.5,0.4,1.2,0.8,1.8,1l0.3,2.6c0,0.3,0.2,0.5,0.5,0.5h4.1
		c0.3,0,0.5-0.2,0.5-0.5l0.3-2.6c0.7-0.3,1.3-0.6,1.8-1L281,17c0.2,0.1,0.5,0,0.6-0.2l2-3.5c0.1-0.2,0.1-0.5-0.1-0.7L281.4,11z
		 M274,14c-2.2,0-4-1.8-4-4s1.8-4,4-4s4,1.8,4,4S276.2,14,274,14z"/>
	<line fill="none" stroke="#000000" stroke-width="2" stroke-miterlimit="10" x1="267.8" y1="192.3" x2="280.3" y2="179.8"/>
	<line fill="none" stroke="#000000" stroke-width="2" stroke-miterlimit="10" x1="396" y1="54" x2="416" y2="54"/>
	<line fill="none" stroke="#000000" stroke-width="2" stroke-miterlimit="10" x1="396" y1="48" x2="416" y2="48"/>
	<line fill="none" stroke="#000000" stroke-width="2" stroke-miterlimit="10" x1="396" y1="60" x2="416" y2="60"/>
	<circle cx="10" cy="186" r="2"/>
	<circle cx="17" cy="186" r="2"/>
	<circle cx="3" cy="186" r="2"/>
	<g>
		<path d="M406,178c2.9,0,5.5,1.1,7.5,3.1l-7.5,11.2l-7.5-11.2C400.5,179.1,403.1,178,406,178 M406,176c-4.1,0-7.7,2-10,5l10,15
			l10-15C413.7,178,410.1,176,406,176L406,176z"/>
	</g>
	<path d="M406,196l7.5-11.3c-1.7-2.2-4.5-3.7-7.5-3.7c-3.1,0-5.8,1.5-7.5,3.7L406,196z"/>
	<polyline fill-rule="evenodd" clip-rule="evenodd" fill="none" stroke="#231F20" stroke-width="2" stroke-miterlimit="10" points="
		152,224.7 145.9,231 143.2,228.2 	"/>
	<circle cx="10" cy="226" r="4"/>
	<path d="M10,232c-6.1,0-8,4-8,4v2h16v-2C18,236,16.1,232,10,232z"/>
	<circle cx="57" cy="226" r="4"/>
	<path d="M57,232c-6.1,0-8,4-8,4v2h16v-2C65,236,63.1,232,57,232z"/>
	<line fill="none" stroke="#231F20" stroke-width="2" stroke-miterlimit="10" x1="47" y1="225" x2="47" y2="233"/>
	<line fill="none" stroke="#231F20" stroke-width="2" stroke-miterlimit="10" x1="51" y1="229" x2="43" y2="229"/>
	<circle cx="101" cy="226" r="4"/>
	<path d="M101,232c-6.1,0-8,4-8,4v2h16v-2C109,236,107.1,232,101,232z"/>
	<line fill="none" stroke="#231F20" stroke-width="2" stroke-miterlimit="10" x1="95" y1="229" x2="87" y2="229"/>
	<g>
		<g>
			<path d="M190.5,232c-1.5,0-2.7,0.4-3.6,0.9c1.4,1.2,2,2.6,2.1,2.7l0.1,0.2v2.2h8v-2C197,236,195.4,232,190.5,232z"/>
		</g>
		<g>
			<circle cx="190.5" cy="226.5" r="3.5"/>
		</g>
	</g>
	<g>
		<path fill="#231F20" d="M178,226.5c0-1.9,1.6-3.5,3.5-3.5c1.9,0,3.5,1.6,3.5,3.5s-1.6,3.5-3.5,3.5C179.6,230,178,228.4,178,226.5z
			 M181.5,232c-4.9,0-6.5,4-6.5,4v2h13v-2C188,236,186.4,232,181.5,232z"/>
	</g>
	<g>
		<path fill="#231F20" d="M134,226.5c0-1.9,1.6-3.5,3.5-3.5c1.9,0,3.5,1.6,3.5,3.5s-1.6,3.5-3.5,3.5C135.6,230,134,228.4,134,226.5z
			 M137.5,232c-4.9,0-6.5,4-6.5,4v2h13v-2C144,236,142.4,232,137.5,232z"/>
	</g>
	<g>
		<path fill="#231F20" d="M227,227c0-1.7,1.3-3,3-3c1.7,0,3,1.3,3,3s-1.3,3-3,3C228.3,230,227,228.7,227,227z M230,232
			c-4.6,0-6,3.3-6,3.3v1.7h12v-1.7C236,235.3,234.6,232,230,232z"/>
	</g>
	<g>
		<g>
			<circle fill="#231F20" cx="236.5" cy="226.5" r="2.5"/>
		</g>
		<g>
			<path fill="#231F20" d="M236.5,231c-1.2,0-2.1,0.3-2.8,0.8c2.3,1.1,3.2,3,3.3,3.2l0,0.1h4.1v-1.3C241,233.7,239.9,231,236.5,231z
				"/>
		</g>
	</g>
	<g>
		<g>
			<circle fill="#231F20" cx="223.5" cy="226.5" r="2.5"/>
		</g>
		<g>
			<path fill="#231F20" d="M223.5,231c1.2,0,2.1,0.3,2.8,0.8c-2.3,1.1-3.2,3-3.3,3.2l0,0.1H219v-1.3C219,233.7,220.1,231,223.5,231z
				"/>
		</g>
	</g>
	<polygon points="274,221 263,227 274,233 285,227 	"/>
	<polygon points="281,230.8 274,235 267,230.8 267,235.2 274,239 281,235.2 	"/>
	<rect x="283" y="227" width="2" height="8"/>
	<path d="M142,264c-3.9,0-7,3.1-7,7c0,6,7,13,7,13s7-7.1,7-13C149,267.1,145.9,264,142,264z M142,273.5c-1.4,0-2.5-1.1-2.5-2.5
		s1.1-2.5,2.5-2.5s2.5,1.1,2.5,2.5S143.4,273.5,142,273.5z"/>
	<g>
		<g>
			<circle cx="186" cy="274" r="1.1"/>
		</g>
		<g>
			<path d="M186,264c-5.5,0-10,4.5-10,10s4.5,10,10,10c5.5,0,10-4.5,10-10S191.5,264,186,264z M188.1,276.1L180,280l3.9-8.1l8.1-3.9
				L188.1,276.1z"/>
		</g>
	</g>
	<g>
		<path d="M318,267c3.9,0,7,3.1,7,7s-3.1,7-7,7s-7-3.1-7-7S314.1,267,318,267 M318,265c-5,0-9,4-9,9s4,9,9,9s9-4,9-9
			S323,265,318,265L318,265z"/>
	</g>
	<g>
		<circle cx="318" cy="274" r="4"/>
	</g>
	
		<line fill="none" stroke="#000000" stroke-width="2" stroke-linejoin="round" stroke-miterlimit="10" x1="318" y1="263" x2="318" y2="266"/>
	
		<line fill="none" stroke="#000000" stroke-width="2" stroke-linejoin="round" stroke-miterlimit="10" x1="318" y1="282" x2="318" y2="285"/>
	
		<line fill="none" stroke="#000000" stroke-width="2" stroke-linejoin="round" stroke-miterlimit="10" x1="329" y1="274" x2="326" y2="274"/>
	
		<line fill="none" stroke="#000000" stroke-width="2" stroke-linejoin="round" stroke-miterlimit="10" x1="310" y1="274" x2="307" y2="274"/>
	<g>
		<path d="M274,267c3.9,0,7,3.1,7,7s-3.1,7-7,7s-7-3.1-7-7S270.1,267,274,267 M274,265c-5,0-9,4-9,9s4,9,9,9s9-4,9-9
			S279,265,274,265L274,265z"/>
	</g>
	
		<line fill="none" stroke="#000000" stroke-width="2" stroke-linejoin="round" stroke-miterlimit="10" x1="274" y1="263" x2="274" y2="266"/>
	
		<line fill="none" stroke="#000000" stroke-width="2" stroke-linejoin="round" stroke-miterlimit="10" x1="274" y1="282" x2="274" y2="285"/>
	
		<line fill="none" stroke="#000000" stroke-width="2" stroke-linejoin="round" stroke-miterlimit="10" x1="285" y1="274" x2="282" y2="274"/>
	
		<line fill="none" stroke="#000000" stroke-width="2" stroke-linejoin="round" stroke-miterlimit="10" x1="266" y1="274" x2="263" y2="274"/>
	<g>
		<path d="M362,267c3.9,0,7,3.1,7,7s-3.1,7-7,7c-3.9,0-7-3.1-7-7S358.1,267,362,267 M362,265c-5,0-9,4-9,9s4,9,9,9s9-4,9-9
			S367,265,362,265L362,265z"/>
	</g>
	
		<line fill="none" stroke="#000000" stroke-width="2" stroke-linejoin="round" stroke-miterlimit="10" x1="362" y1="263" x2="362" y2="266"/>
	
		<line fill="none" stroke="#000000" stroke-width="2" stroke-linejoin="round" stroke-miterlimit="10" x1="362" y1="282" x2="362" y2="285"/>
	
		<line fill="none" stroke="#000000" stroke-width="2" stroke-linejoin="round" stroke-miterlimit="10" x1="373" y1="274" x2="370" y2="274"/>
	
		<line fill="none" stroke="#000000" stroke-width="2" stroke-linejoin="round" stroke-miterlimit="10" x1="354" y1="274" x2="351" y2="274"/>
	
		<line fill="none" stroke="#000000" stroke-width="2" stroke-linejoin="round" stroke-miterlimit="10" x1="365" y1="277" x2="359" y2="271"/>
	
		<line fill="none" stroke="#000000" stroke-width="2" stroke-linejoin="round" stroke-miterlimit="10" x1="359" y1="277" x2="365" y2="271"/>
	<path d="M401,264c-2.8,0-5,2.2-5,5c0,4.3,5,9.3,5,9.3s5-5,5-9.3C406,266.2,403.8,264,401,264z M401,270.8c-1,0-1.8-0.8-1.8-1.8
		s0.8-1.8,1.8-1.8s1.8,0.8,1.8,1.8S402,270.8,401,270.8z"/>
	<path d="M411,270c-2.8,0-5,2.2-5,5c0,4.3,5,9.3,5,9.3s5-5,5-9.3C416,272.2,413.8,270,411,270z M411,276.8c-1,0-1.8-0.8-1.8-1.8
		s0.8-1.8,1.8-1.8s1.8,0.8,1.8,1.8S412,276.8,411,276.8z"/>
	<path d="M239.4,272.6l-8-8c-0.8-0.8-2-0.8-2.8,0l-8,8c-0.8,0.8-0.8,2,0,2.8l8,8c0.8,0.8,2,0.8,2.8,0l8-8
		C240.2,274.6,240.2,273.4,239.4,272.6z M232,276.5V274h-4v3h-2v-3c0-1.1,0.9-2,2-2h4v-2.5l3.5,3.5L232,276.5z"/>
	<g>
		<g>
			<path d="M7.1,310.2l5.2,1.7l0.6,0.2l0.6-0.2l4.4-1.4v12.9l-5,2.4l-5.1-2.6L7,322.8l-0.9,0.4L2,325.1v-12.5L7.1,310.2 M19.5,308
				c-0.1,0-0.1,0-0.2,0l-6.3,2l-6-2l-7,3.3v16.2c0,0.3,0.2,0.5,0.5,0.5c0.1,0,0.2,0,0.2-0.1L7,325l6,3l7-3.3v-16.2
				C20,308.2,19.8,308,19.5,308L19.5,308z"/>
		</g>
	</g>
	<g>
		<path d="M0,311.3v16.2c0,0.4,0.4,0.6,0.7,0.4L7,325v-17L0,311.3z"/>
		<path d="M20,324.7v-16.2c0-0.3-0.3-0.6-0.7-0.5l-6.3,2v18L20,324.7z"/>
	</g>
	<path d="M60,308c-2.2,0-4,1.8-4,4s4,7,4,7s4-4.8,4-7S62.2,308,60,308z M60,313.5c-0.8,0-1.5-0.7-1.5-1.5s0.7-1.5,1.5-1.5
		c0.8,0,1.5,0.7,1.5,1.5S60.8,313.5,60,313.5z"/>
	<path d="M61.2,320l-1.2,1.4l-1.2-1.4c-0.4-0.5-1.1-1.4-1.8-2.4v8.2l-5.1-2.6l-0.9-0.4l0,0v-12.6l0.1-0.1l3.4,1.1
		c0.1-0.7,0.3-1.3,0.6-1.9L51,308l-7,3.3v16.2c0,0.1,0,0.2,0.1,0.2c0,0,0,0,0,0.1c0,0,0.1,0.1,0.1,0.1c0,0,0,0,0.1,0
		c0,0,0.1,0,0.2,0.1c0,0,0,0,0.1,0c0,0,0,0,0,0c0.1,0,0.2,0,0.2-0.1L51,325l6,3l7-3.3V316C63,317.7,61.7,319.3,61.2,320z"/>
	<polygon points="104,327 101,324 95,324 92,327 92,328 104,328 	"/>
	<path d="M150.9,315.7l-1.5-4.4c-0.3-0.8-1-1.3-1.8-1.3h-11.3c-0.8,0-1.5,0.5-1.8,1.3l-1.5,4.4c-0.1,0.2-0.1,0.4-0.1,0.5v9.2
		c0,0.3,0.2,0.5,0.5,0.5h2c0.3,0,0.5-0.2,0.5-0.5V324h12v1.5c0,0.3,0.2,0.5,0.5,0.5h2c0.3,0,0.5-0.2,0.5-0.5v-9.2
		C151,316.1,151,315.9,150.9,315.7z M136.1,311.8c0-0.1,0.1-0.2,0.3-0.2h11.3c0.1,0,0.2,0.1,0.3,0.2l1.4,4.2h-14.6L136.1,311.8z
		 M136.5,321c-0.8,0-1.5-0.7-1.5-1.5s0.7-1.5,1.5-1.5s1.5,0.7,1.5,1.5S137.3,321,136.5,321z M146,319.5c0-0.8,0.7-1.5,1.5-1.5
		s1.5,0.7,1.5,1.5s-0.7,1.5-1.5,1.5S146,320.3,146,319.5z"/>
	<g>
		<circle cx="190.5" cy="321.5" r="1.5"/>
		<circle cx="181.5" cy="321.5" r="1.5"/>
		<path d="M190,316c-0.1-0.2-0.3-0.4-0.5-0.4h-6.9c-0.2,0-0.5,0.1-0.5,0.4c-0.4,0.9-1.3,3-1.3,3h10.6L190,316z"/>
		<path d="M186,308l-8.9,4.4c-0.7,0.3-1.1,1-1.1,1.8V326c0,1.1,0.9,2,2,2h16c1.1,0,2-0.9,2-2v-11.8c0-0.8-0.4-1.5-1.1-1.8L186,308z
			 M193,325.5c0,0.3-0.2,0.5-0.5,0.5h-2c-0.3,0-0.5-0.2-0.5-0.5V324h-8v1.5c0,0.3-0.2,0.5-0.5,0.5h-2c-0.3,0-0.5-0.2-0.5-0.5v-6
			c0-0.3,0.1-0.6,0.2-0.9l1.5-3.7c0.2-0.5,0.7-0.9,1.3-0.9h8.2c0.6,0,1.1,0.3,1.3,0.9l1.5,3.7c0.1,0.3,0.2,0.6,0.2,0.9V325.5z"/>
	</g>
	<path d="M98,308c-7.3,0-8,3-8,4v10.9c0,1.7,1.4,3.1,3.1,3.1h9.7c1.7,0,3.1-1.4,3.1-3.1V312C106,311.1,105.3,308,98,308z M93.5,324
		c-0.8,0-1.5-0.7-1.5-1.5s0.7-1.5,1.5-1.5c0.8,0,1.5,0.7,1.5,1.5S94.3,324,93.5,324z M102.5,324c-0.8,0-1.5-0.7-1.5-1.5
		s0.7-1.5,1.5-1.5c0.8,0,1.5,0.7,1.5,1.5S103.3,324,102.5,324z M97,317h-5v-5h5V317z M104,317h-5v-5h5V317z"/>
	<path d="M237,308h-14c-1.1,0-2,0.9-2,2v14c0,1.1,0.9,2,2,2h4l3,3l3-3h4c1.1,0,2-0.9,2-2v-14C239,308.9,238.1,308,237,308z M230,311
		c1.7,0,3,1.3,3,3s-1.3,3-3,3c-1.7,0-3-1.3-3-3S228.3,311,230,311z M236,322h-12v-0.3c0-0.5,0.2-0.9,0.6-1.2
		c0.8-0.6,2.5-1.4,5.4-1.4c2.9,0,4.6,0.9,5.4,1.4c0.4,0.3,0.6,0.7,0.6,1.2V322z"/>
	<path d="M282,318c0-1.1,0.9-2,2-2v-4c0-1.1-0.9-2-2-2h-16c-1.1,0-2,0.9-2,2v4c1.1,0,2,0.9,2,2s-0.9,2-2,2v4c0,1.1,0.9,2,2,2h16
		c1.1,0,2-0.9,2-2v-4C282.9,320,282,319.1,282,318z"/>
	<path d="M328,316v-4c0-1.1-0.9-2-2-2h-16c-1.1,0-2,0.9-2,2v4c1.1,0,2,0.9,2,2s-0.9,2-2,2v4c0,1.1,0.9,2,2,2h16c1.1,0,2-0.9,2-2v-4
		c-1.1,0-2-0.9-2-2S326.9,316,328,316z M321.1,322.3l-3.1-1.9l-3.1,1.9l0.8-3.5l-2.7-2.4l3.6-0.3l1.4-3.3l1.4,3.3l3.6,0.3l-2.7,2.4
		L321.1,322.3z"/>
	<path d="M372,316v-4c0-1.1-0.9-2-2-2h-16c-1.1,0-2,0.9-2,2v4c1.1,0,2,0.9,2,2s-0.9,2-2,2v4c0,1.1,0.9,2,2,2h16c1.1,0,2-0.9,2-2v-4
		c-1.1,0-2-0.9-2-2S370.9,316,372,316z M366,319h-3v3h-2v-3h-3v-2h3v-3h2v3h3V319z"/>
	<path d="M416,316v-4c0-1.1-0.9-2-2-2h-16c-1.1,0-2,0.9-2,2v4c1.1,0,2,0.9,2,2s-0.9,2-2,2v4c0,1.1,0.9,2,2,2h16c1.1,0,2-0.9,2-2v-4
		c-1.1,0-2-0.9-2-2S414.9,316,416,316z M408.1,321.5l-2.1-2.1l-2.1,2.1l-1.4-1.4l2.1-2.1l-2.1-2.1l1.4-1.4l2.1,2.1l2.1-2.1l1.4,1.4
		l-2.1,2.1l2.1,2.1L408.1,321.5z"/>
	<polygon points="48,365 48,359 54,353 54,371 	"/>
	<rect x="44" y="359" width="5" height="6"/>
	<circle cx="237" cy="356" r="3"/>
	
		<line fill="none" stroke="#000000" stroke-width="4" stroke-linecap="round" stroke-linejoin="round" stroke-miterlimit="10" x1="222" y1="370" x2="229" y2="370"/>
	
		<line fill="none" stroke="#000000" stroke-width="4" stroke-linecap="round" stroke-linejoin="round" stroke-miterlimit="10" x1="233" y1="361" x2="237" y2="370"/>
	<g>
		<path d="M59,362c0-1.9-1.3-3.4-3-3.9v7.7C57.7,365.4,59,363.9,59,362z"/>
		<path d="M56,353.1v2c3.4,0.5,6,3.4,6,6.9s-2.6,6.4-6,6.9v2c4.5-0.5,8-4.3,8-8.9C64,357.4,60.5,353.6,56,353.1z"/>
	</g>
	<path d="M366,365l-2.6,2.6c-1.4,0-7-5.6-7-7l2.6-2.6v-4c0-0.6-0.4-1-1-1h-4c-0.6,0-1,0.4-1,1v2c0,7,9,15,15,15h2c0.6,0,1-0.4,1-1
		v-4c0-0.6-0.4-1-1-1H366z"/>
	<path d="M403,366l-2.6-2.6c0-1.4,5.6-7,7-7l2.6,2.6h4c0.6,0,1-0.4,1-1v-4c0-0.6-0.4-1-1-1h-2c-7,0-15,9-15,15v2c0,0.6,0.4,1,1,1h4
		c0.6,0,1-0.4,1-1V366z"/>
	<path d="M329.7,361.8l-1.4-1.4c-4.9-4.9-16.5-4.2-20.7,0l-1.4,1.4c-0.4,0.4-0.4,1,0,1.4l2.8,2.8c0.4,0.4,1,0.4,1.4,0l2.6-2.6v-3.6
		c1-1,9.1-1,10,0v3.7l2.6,2.6c0.4,0.4,1,0.4,1.4,0l2.8-2.8C330.1,362.8,330.1,362.1,329.7,361.8z"/>
	<path d="M280,352h-12c-1.1,0-2,0.9-2,2v16c0,1.1,0.9,2,2,2h12c1.1,0,2-0.9,2-2v-16C282,352.9,281.1,352,280,352z M274,370
		c-3.3,0-6-2.7-6-6s2.7-6,6-6s6,2.7,6,6S277.3,370,274,370z M274,368c-2.2,0-4-1.8-4-4h8C278,366.2,276.2,368,274,368z M269,356
		c-0.6,0-1-0.4-1-1s0.4-1,1-1s1,0.4,1,1S269.6,356,269,356z M272,356c-0.6,0-1-0.4-1-1s0.4-1,1-1s1,0.4,1,1S272.6,356,272,356z"/>
	<line fill="none" stroke="#000000" stroke-width="4" stroke-miterlimit="10" x1="186" y1="361" x2="186" y2="357"/>
	<path d="M187.5,354.5c0-0.8-1.5-3-1.5-3s-1.5,2.2-1.5,3s0.7,1.5,1.5,1.5C186.8,356,187.5,355.3,187.5,354.5z"/>
	<polygon points="195,366 192,367 189,366 186,367 183,366 180,367 177,366 177,372 195,372 	"/>
	<path d="M192,360h-12c-2.2,0-4,1.8-4,4s1.8,4,4,4c1.2,0,2.3-0.5,3-1.4c0.7,0.8,1.8,1.4,3,1.4c1.2,0,2.3-0.5,3-1.4
		c0.7,0.8,1.8,1.4,3,1.4c2.2,0,4-1.8,4-4S194.2,360,192,360z M192,366c-2.2,0-3-2-3-2s-1,2-3,2s-3-2-3-2s-0.8,2-3,2
		c-1.1,0-2-0.9-2-2c0-1.1,0.9-2,2-2h12c1.1,0,2,0.9,2,2C194,365.1,193.1,366,192,366z"/>
	<rect x="87" y="360" width="4" height="12"/>
	<path d="M103.7,372H95c-1.1,0-2-0.9-2-2v-10.2c0-0.5,0.2-1,0.6-1.4l6.4-6.4c0,0,2,0.5,2,2.4c0,0.7-1.3,4.6-1.3,4.6h6.3
		c1.1,0,2,0.9,2,2v1.3c0,0.4-0.1,0.9-0.3,1.3l-3.2,7.2C105.2,371.5,104.5,372,103.7,372z"/>
	<rect x="149" y="352" width="4" height="12"/>
	<path d="M136.3,352h8.7c1.1,0,2,0.9,2,2v10.2c0,0.5-0.2,1-0.6,1.4L140,372c0,0-2-0.5-2-2.4c0-0.7,1.3-4.6,1.3-4.6H133
		c-1.1,0-2-0.9-2-2v-1.3c0-0.4,0.1-0.9,0.3-1.3l3.2-7.2C134.8,352.5,135.5,352,136.3,352z"/>
	<path d="M228,366h5v-7c-5.8,0-9,3-9,3L228,366z"/>
	<polygon points="4,365 4,359 10,353 10,371 	"/>
	<rect y="359" width="5" height="6"/>
	<g>
		<path d="M15,362c0-1.9-1.3-3.4-3-3.9v7.7C13.7,365.4,15,363.9,15,362z"/>
	</g>
	<path fill="none" stroke="#000000" stroke-width="2" stroke-miterlimit="10" d="M54,415c-5,0-9-4-9-9s4-9,9-9s9,4,9,9
		S59,415,54,415z"/>
	<path fill="none" stroke="#000000" stroke-width="2" stroke-miterlimit="10" d="M63.8,400c-1.1-1.9-2.8-3.4-4.8-4.3"/>
	<path fill="none" stroke="#000000" stroke-width="2" stroke-miterlimit="10" d="M44.2,400c1.1-1.9,2.8-3.4,4.8-4.3"/>
	<line fill="none" stroke="#000000" stroke-width="2" stroke-miterlimit="10" x1="98" y1="416" x2="98" y2="411"/>
	<path fill="none" stroke="#000000" stroke-width="2" stroke-miterlimit="10" d="M92,406c0,3.3,2.7,6,6,6c3.3,0,6-2.7,6-6"/>
	<path fill="none" stroke="#000000" stroke-width="2" stroke-linejoin="round" stroke-miterlimit="10" d="M151,407c0,5-4,9-9,9
		c-5,0-9-4-9-9c0-5,4-9,9-9C147,398,151,402,151,407z"/>
	
		<line fill="none" stroke="#000000" stroke-width="2" stroke-linejoin="round" stroke-miterlimit="10" x1="139" y1="395" x2="145" y2="395"/>
	
		<line fill="none" stroke="#000000" stroke-width="2" stroke-linejoin="round" stroke-miterlimit="10" x1="142" y1="401" x2="142" y2="409"/>
	
		<line fill="none" stroke="#000000" stroke-width="2" stroke-linejoin="round" stroke-miterlimit="10" x1="150.5" y1="398.5" x2="148.4" y2="400.6"/>
	<polyline fill="none" stroke="#000000" stroke-width="2" stroke-miterlimit="10" points="186,413 186,408 182,405 	"/>
	<circle cx="189" cy="398" r="2"/>
	<g>
		<g>
			<path d="M193,409.6c1.9,0,3.4,1.5,3.4,3.4s-1.5,3.4-3.4,3.4s-3.4-1.5-3.4-3.4S191.1,409.6,193,409.6 M193,408c-2.8,0-5,2.2-5,5
				s2.2,5,5,5s5-2.2,5-5S195.8,408,193,408L193,408z"/>
		</g>
	</g>
	<g>
		<g>
			<path d="M179,409.6c1.9,0,3.4,1.5,3.4,3.4s-1.5,3.4-3.4,3.4s-3.4-1.5-3.4-3.4S177.1,409.6,179,409.6 M179,408c-2.8,0-5,2.2-5,5
				s2.2,5,5,5s5-2.2,5-5S181.8,408,179,408L179,408z"/>
		</g>
	</g>
	<path d="M189.5,404c-2.6-3.3-3-4-3.7-4c-0.6,0-0.4,0-0.7,0c-0.8,0-1.4,0.6-4.3,3.5c-1.1,1.1-1,2.5,0.1,3.2l4.4,2l1.4-1.4l-2.1-1.7
		l2-1.9c1.8,2.1,1.8,2.1,2,2.2l0.2,0.1h4.2v-2H189.5z"/>
	<path d="M101,399c0-1.7-1.3-3-3-3s-3,1.3-3,3c0,0.5,0,6.5,0,7c0,1.7,1.3,3,3,3s3-1.3,3-3C101,405.5,101,399.5,101,399z"/>
	<polyline fill="none" stroke="#000000" stroke-width="2" stroke-miterlimit="10" points="54,401 54,406 57,409 	"/>
	<g>
		<path d="M239.7,398.9l-2.6-2.6c-0.4-0.4-1-0.4-1.4,0L234,398l4,4l1.7-1.7C240.1,399.9,240.1,399.2,239.7,398.9z"/>
		<polygon points="233,399.1 220,412 220,416 224,416 236.9,403 		"/>
	</g>
	<path d="M16,396H4c-1.1,0-2,0.9-2,2v11c0,0.6,0.3,1.2,0.8,1.6L10,416l7.2-5.4c0.5-0.4,0.8-1,0.8-1.6v-11C18,396.9,17.1,396,16,396z
		 M8,409l-4-4l1.2-1.2l2.8,2.8l6.8-6.8L16,401L8,409z"/>
	<path d="M322.4,398c-1.8,0-3.4,0.9-4.4,2.3c-1-1.4-2.6-2.3-4.4-2.3c-3.1,0-5.6,2.5-5.6,5.6c0,4.4,10,12.4,10,12.4s10-8,10-12.4
		C328,400.5,325.5,398,322.4,398z M318,409.4l-3.6-3.6l1.1-1.1l2.5,2.5l6.2-6.2l1.1,1.1L318,409.4z"/>
	<path d="M370,400h-16c-1.1,0-2,0.9-2,2v12c0,1.1,0.9,2,2,2h16c1.1,0,2-0.9,2-2v-12C372,400.9,371.1,400,370,400z M357,414
		c-1.7,0-3-1.3-3-3s1.3-3,3-3s3,1.3,3,3S358.7,414,357,414z M370,406h-16v-4h16V406z"/>
	<line fill="none" stroke="#000000" stroke-width="2" stroke-miterlimit="10" x1="353.6" y1="401.1" x2="364" y2="397"/>
	<g>
		<path d="M278,401c2.2,0,4,1.8,4,4c0,5-4.9,8.9-6,9c-0.3,0-0.7-0.1-1-0.3l-1-0.6l-1,0.6c-0.3,0.2-0.7,0.3-1,0.3c-1.1,0-6-3.1-6-9
			c0-2.2,1.8-4,4-4c1,0,1.9,0.4,2.7,1l1.3,1.2l1.3-1.2C276.1,401.4,277,401,278,401 M278,399c-1.5,0-2.9,0.6-4,1.5
			c-1.1-1-2.5-1.5-4-1.5c-3.3,0-6,2.7-6,6c0,7,5.8,11,8,11c0.7,0,1.4-0.2,2-0.6c0.6,0.3,1.3,0.6,2,0.6c2.2,0,8-5,8-11
			C284,401.7,281.3,399,278,399L278,399z"/>
	</g>
	<line fill="none" stroke="#000000" stroke-width="2" stroke-miterlimit="10" x1="274" y1="402" x2="274" y2="396"/>
	<path d="M271.9,397.6c1.5,1.5,1.6,3.9,1.6,3.9s-2.4-0.1-3.9-1.6c-1.5-1.5-1.6-3.9-1.6-3.9S270.4,396.1,271.9,397.6z"/>
	<path d="M272,407c0,0.8-0.5,1.5-0.8,1.9c-0.1,0.1-0.3,0.1-0.4,0c-0.3-0.4-0.8-1.1-0.8-1.9s0.5-1.5,0.8-1.9c0.1-0.1,0.3-0.1,0.4,0
		C271.5,405.5,272,406.2,272,407z"/>
	<path d="M276,416c2.2,0,8-5,8-11c0-3.3-2.7-6-6-6c-1.5,0-2.9,0.6-4,1.5v14.9C274.6,415.8,275.3,416,276,416z"/>
	<path d="M414,398h-16c-1.1,0-2,0.9-2,2v12c0,1.1,0.9,2,2,2h16c1.1,0,2-0.9,2-2v-12C416,398.9,415.1,398,414,398z M414,404h-16v-3
		h16V404z"/>
	<path d="M19.4,450.6L8.9,440H0l0,8.8l10.5,10.5c0.8,0.8,2.1,0.8,3,0l5.9-5.9C20.2,452.7,20.2,451.4,19.4,450.6z M2,443.5
		c0-0.8,0.7-1.5,1.5-1.5c0.8,0,1.5,0.7,1.5,1.5c0,0.8-0.7,1.5-1.5,1.5C2.7,445,2,444.3,2,443.5z"/>
	
		<polyline fill="none" stroke="#000000" stroke-width="2" stroke-linecap="round" stroke-linejoin="round" stroke-miterlimit="10" points="
		136.9,449.1 142,442 147.1,449.1 	"/>
	<path d="M153,448H131c-0.7,0-1.2,0.7-1,1.3l3.4,9c0.1,0.4,0.5,0.7,1,0.7h15.1c0.4,0,0.8-0.3,1-0.7l3.4-9
		C154.2,448.7,153.7,448,153,448z M142,455c-1.1,0-2-0.9-2-2s0.9-2,2-2c1.1,0,2,0.9,2,2S143.1,455,142,455z"/>
	<path d="M63.4,450.6L52.9,440H44l0,8.8l10.5,10.5c0.8,0.8,2.1,0.8,3,0l5.9-5.9C64.2,452.7,64.2,451.4,63.4,450.6z M47.5,445
		c-0.8,0-1.5-0.7-1.5-1.5c0-0.8,0.7-1.5,1.5-1.5c0.8,0,1.5,0.7,1.5,1.5C49,444.3,48.3,445,47.5,445z M57.6,454.3l-0.8-0.8
		c-0.5,0.4-1.1,0.6-1.7,0.6c-0.6,0-1.2-0.3-1.8-0.9l0,0l1.1-1.1c0.4,0.4,0.7,0.6,1,0.6c0.3,0,0.5-0.1,0.8-0.3
		c0.2-0.2,0.3-0.4,0.2-0.7c0-0.2-0.2-0.5-0.4-0.7c-0.2-0.2-0.5-0.4-0.7-0.4c-0.2,0-0.5,0-0.9,0.1c-0.8,0.3-1.4,0.5-2,0.5
		c-0.5,0-1.1-0.3-1.6-0.8c-0.5-0.5-0.7-1-0.7-1.5c0-0.6,0.2-1.1,0.6-1.6l-0.9-0.9l0.6-0.6l0.9,0.9c0.5-0.4,1-0.5,1.6-0.4
		c0.6,0.1,1.1,0.4,1.6,0.9l-1.2,1.2c-0.3-0.3-0.6-0.5-0.9-0.5c-0.3-0.1-0.5,0-0.7,0.2c-0.2,0.2-0.3,0.4-0.2,0.6
		c0.1,0.2,0.2,0.5,0.4,0.7c0.2,0.2,0.4,0.3,0.7,0.4c0.2,0,0.5,0,1-0.1c0.7-0.3,1.4-0.5,1.9-0.5c0.6,0,1.1,0.3,1.6,0.8
		c0.5,0.5,0.7,1,0.8,1.5c0,0.5-0.2,1.1-0.6,1.6l0.8,0.8L57.6,454.3z"/>
	<path d="M107.4,450.6L96.9,440H88l0,8.8l10.5,10.5c0.8,0.8,2.1,0.8,3,0l5.9-5.9C108.2,452.7,108.2,451.4,107.4,450.6z M91.5,445
		c-0.8,0-1.5-0.7-1.5-1.5c0-0.8,0.7-1.5,1.5-1.5c0.8,0,1.5,0.7,1.5,1.5C93,444.3,92.3,445,91.5,445z M102.6,452.6
		c-0.1,0.2-0.3,0.3-0.4,0.5c-0.6,0.6-1.3,0.9-2,0.9c-0.7,0-1.4-0.3-2-0.9l-0.1-0.1l-0.5,0.5l-0.6-0.6l0.5-0.5l-0.6-0.6l-0.5,0.5
		l-0.6-0.6l0.5-0.5l-0.1-0.1c-0.7-0.7-1-1.4-1-2.1c0-0.8,0.3-1.4,0.8-2c0.1-0.1,0.3-0.3,0.5-0.4c0.2-0.1,0.3-0.2,0.5-0.4l0.9,1
		c-0.2,0.1-0.3,0.2-0.5,0.3c-0.2,0.1-0.3,0.2-0.4,0.4c-0.3,0.3-0.3,0.6-0.3,0.9c0.1,0.4,0.3,0.7,0.7,1.1l0.1,0.1l1.4-1.4l0.6,0.6
		l-1.4,1.4l0.6,0.6l1.4-1.4l0.6,0.6l-1.4,1.4l0.1,0.1c0.4,0.4,0.7,0.6,1.1,0.6c0.3,0.1,0.6-0.1,0.9-0.3c0.1-0.1,0.3-0.3,0.4-0.4
		c0.1-0.2,0.2-0.3,0.3-0.5l1,0.8C102.8,452.2,102.7,452.4,102.6,452.6z"/>
	<circle cx="192" cy="458" r="2"/>
	<circle cx="181" cy="458" r="2"/>
	<polygon points="364,439 368.1,442 364,445 	"/>
	<path fill="none" stroke="#000000" stroke-width="2" stroke-miterlimit="10" d="M361,447c0,0,0-0.1,0-2c0-1.9,1-3,3-3s0.5,0,0.5,0"
		/>
	<path fill="none" stroke="#000000" stroke-width="2" stroke-miterlimit="10" d="M194,454h-13c-0.8,0-1.3-0.9-0.8-1.6l1.8-2.4l-3-9
		h-3"/>
	<path d="M195,442h-15.6l2.5,9h9.9c0.4,0,0.8-0.2,0.9-0.6l3.1-7C196.2,442.7,195.7,442,195,442z"/>
	<circle cx="280" cy="458" r="2"/>
	<circle cx="269" cy="458" r="2"/>
	<path fill="none" stroke="#000000" stroke-width="2" stroke-miterlimit="10" d="M282,454h-13c-0.8,0-1.3-0.9-0.8-1.6l1.8-2.4l-3-9
		h-3"/>
	<circle cx="236" cy="458" r="2"/>
	<circle cx="225" cy="458" r="2"/>
	<path fill="none" stroke="#000000" stroke-width="2" stroke-miterlimit="10" d="M238,454h-13c-0.8,0-1.3-0.9-0.8-1.6l1.8-2.4l-3-9
		h-3"/>
	<path d="M239,442h-15.6l2.5,9h9.9c0.4,0,0.8-0.2,0.9-0.6l3.1-7C240.2,442.7,239.7,442,239,442z"/>
	<g>
		<polygon points="237,441 235,439 233,441 		"/>
		<polygon points="232,441 230,438 227,441 		"/>
	</g>
	<path d="M283,442h-15.6l2.5,9h9.9c0.4,0,0.8-0.2,0.9-0.6l3.1-7C284.2,442.7,283.7,442,283,442z M276,449v-2h-4v-1h4v-2l3,2.5
		L276,449z"/>
	<circle cx="324" cy="458" r="2"/>
	<circle cx="313" cy="458" r="2"/>
	<path fill="none" stroke="#000000" stroke-width="2" stroke-miterlimit="10" d="M326,454h-13c-0.8,0-1.3-0.9-0.8-1.6l1.8-2.4l-3-9
		h-3"/>
	<path d="M327,442h-0.6l-3.1,7H314v2h9.9c0.4,0,0.8-0.2,0.9-0.6l3.1-7C328.2,442.7,327.7,442,327,442z"/>
	<polygon points="322,444 319,448 316,444 318,444 318,440 320,440 320,444 	"/>
	<circle cx="368" cy="458" r="2"/>
	<circle cx="357" cy="458" r="2"/>
	<path fill="none" stroke="#000000" stroke-width="2" stroke-miterlimit="10" d="M370,454h-13c-0.8,0-1.3-0.9-0.8-1.6l1.8-2.4l-3-9
		h-3"/>
	<path d="M371,442h-0.6l-3.1,7H358v2h9.9c0.4,0,0.8-0.2,0.9-0.6l3.1-7C372.2,442.7,371.7,442,371,442z"/>
	<path d="M406.5,440c-4.7,0-8.5,3.8-8.5,8.5s3.8,8.5,8.5,8.5c0.2,0,0.5,0,0.5,0v3c0,0,8-4,8-11.5C415,443.8,411.2,440,406.5,440z
		 M406,449c0,0.9-1,2-1,2h-0.9c0,0,1-0.8,1-2H403v-3h3C406,446,406,447.9,406,449z M410,449c0,0.9-1,2-1,2h-0.9c0,0,1-0.8,1-2H407
		v-3h3C410,446,410,447.9,410,449z"/>
	<path d="M104.2,503l-6.2-3.7l-6.2,3.7l1.6-7l-5.4-4.7l7.2-0.6L98,484l2.8,6.6l7.2,0.6l-5.4,4.7L104.2,503z"/>
	<g>
		<path fill="#231F20" d="M142,489.1l1,2.3l0.5,1.1l1.2,0.1l2.5,0.2l-1.9,1.6l-0.9,0.8l0.3,1.2l0.6,2.4l-2.1-1.3l-1-0.6l-1,0.6
			l-2.1,1.3l0.6-2.4l0.3-1.2l-0.9-0.8l-1.9-1.6l2.5-0.2l1.2-0.1l0.5-1.1L142,489.1 M142,484l-2.8,6.6l-7.2,0.6l5.4,4.7l-1.6,7
			l6.2-3.7l6.2,3.7l-1.6-7l5.4-4.7l-7.2-0.6L142,484L142,484z"/>
	</g>
	<g>
		<path d="M99,666v2h2h1v14h-8v-14h1h2v-2H99 M100,664h-4c-0.6,0-1,0.4-1,1v1h-1c-1.1,0-2,0.9-2,2v14c0,1.1,0.9,2,2,2h8
			c1.1,0,2-0.9,2-2v-14c0-1.1-0.9-2-2-2h-1v-1C101,664.4,100.6,664,100,664L100,664z"/>
	</g>
	<g>
		<path d="M143,666v2h2h1v14h-8v-14h1h2v-2H143 M144,664h-4c-0.6,0-1,0.4-1,1v1h-1c-1.1,0-2,0.9-2,2v14c0,1.1,0.9,2,2,2h8
			c1.1,0,2-0.9,2-2v-14c0-1.1-0.9-2-2-2h-1v-1C145,664.4,144.6,664,144,664L144,664z"/>
	</g>
	<g>
		<path d="M136,679v3c0,1.1,0.9,2,2,2h8c1.1,0,2-0.9,2-2v-3H136z"/>
	</g>
	<g>
		<path d="M231,666v2h2h1v14h-8v-14h1h2v-2H231 M232,664h-4c-0.6,0-1,0.4-1,1v1h-1c-1.1,0-2,0.9-2,2v14c0,1.1,0.9,2,2,2h8
			c1.1,0,2-0.9,2-2v-14c0-1.1-0.9-2-2-2h-1v-1C233,664.4,232.6,664,232,664L232,664z"/>
	</g>
	<g>
		<path d="M224,674v8c0,1.1,0.9,2,2,2h8c1.1,0,2-0.9,2-2v-8H224z"/>
	</g>
	<g>
		<path d="M275,666v2h2h1v14h-8v-14h1h2v-2H275 M276,664h-4c-0.6,0-1,0.4-1,1v1h-1c-1.1,0-2,0.9-2,2v14c0,1.1,0.9,2,2,2h8
			c1.1,0,2-0.9,2-2v-14c0-1.1-0.9-2-2-2h-1v-1C277,664.4,276.6,664,276,664L276,664z"/>
	</g>
	<g>
		<path d="M268,671v11c0,1.1,0.9,2,2,2h8c1.1,0,2-0.9,2-2v-11H268z"/>
	</g>
	<g>
		<path d="M319,666v2h2h1v14h-8v-14h1h2v-2H319 M320,664h-4c-0.6,0-1,0.4-1,1v1h-1c-1.1,0-2,0.9-2,2v14c0,1.1,0.9,2,2,2h8
			c1.1,0,2-0.9,2-2v-14c0-1.1-0.9-2-2-2h-1v-1C321,664.4,320.6,664,320,664L320,664z"/>
	</g>
	<g>
		<path d="M312,669v13c0,1.1,0.9,2,2,2h8c1.1,0,2-0.9,2-2v-13H312z"/>
	</g>
	<g>
		<path d="M187,666v2h2h1v14h-8v-14h1h2v-2H187 M188,664h-4c-0.6,0-1,0.4-1,1v1h-1c-1.1,0-2,0.9-2,2v14c0,1.1,0.9,2,2,2h8
			c1.1,0,2-0.9,2-2v-14c0-1.1-0.9-2-2-2h-1v-1C189,664.4,188.6,664,188,664L188,664z"/>
	</g>
	<g>
		<path d="M180,677v5c0,1.1,0.9,2,2,2h8c1.1,0,2-0.9,2-2v-5H180z"/>
	</g>
	<g>
		<path d="M365,666v-1c0-0.6-0.4-1-1-1h-4c-0.6,0-1,0.4-1,1v1h-1c-1.1,0-2,0.9-2,2v14c0,1.1,0.9,2,2,2h8c1.1,0,2-0.9,2-2v-14
			c0-1.1-0.9-2-2-2H365z"/>
	</g>
	<path d="M13,666l7,7l-7,7v-4c-12,0-13,5-13,5s1-11,13-11V666z"/>
	<path d="M51,666l-7,7l7,7v-4c12,0,13,5,13,5s-1-11-13-11V666z"/>
	<g>
		<rect y="700.3" width="4" height="4"/>
		<rect y="707.3" width="4" height="4"/>
		<rect y="714.3" width="4" height="4"/>
		<rect x="7" y="700.3" width="4" height="4"/>
		<rect x="7" y="707.3" width="4" height="4"/>
		<rect x="7" y="714.3" width="4" height="4"/>
		<rect x="14" y="700.3" width="4" height="4"/>
		<rect x="14" y="707.3" width="4" height="4"/>
		<rect x="14" y="714.3" width="4" height="4"/>
	</g>
</g>
</svg>
