<?xml version="1.0" encoding="utf-8"?>
<!-- Generator: Adobe Illustrator 18.0.0, SVG Export Plug-In . SVG Version: 6.00 Build 0)  -->
<!DOCTYPE svg PUBLIC "-//W3C//DTD SVG 1.1//EN" "http://www.w3.org/Graphics/SVG/1.1/DTD/svg11.dtd">
<svg version="1.1" id="Layer_1" xmlns="http://www.w3.org/2000/svg" xmlns:xlink="http://www.w3.org/1999/xlink" x="0px" y="0px"
	 viewBox="0 0 16 16" enable-background="new 0 0 16 16" xml:space="preserve">
<g>
	<g>
		<g>
			<path fill="#ECEFF0" d="M5.6,1.6c2.2,0,4,1.8,4,4s-1.8,4-4,4c-2.2,0-4-1.8-4-4S3.4,1.6,5.6,1.6 M5.6,0C2.5,0,0,2.5,0,5.6
				s2.5,5.6,5.6,5.6c3.1,0,5.6-2.5,5.6-5.6S8.7,0,5.6,0L5.6,0z"/>
		</g>
	</g>
	<g>
		<polygon fill="#ECEFF0" points="16,14.6 14.6,16 9.6,11 9.6,9.6 11,9.6 		"/>
		<rect x="9.5" y="8.5" transform="matrix(0.7071 -0.7071 0.7071 0.7071 -4.1164 9.9382)" fill="#ECEFF0" width="1" height="2.9"/>
	</g>
</g>
</svg>
